/* XPM */
static char *antiword_48[] = {
/* width height num_colors chars_per_pixel */
"    48    48      217            2",
/* colors */
".. c #040204",
".# c #548a04",
".a c #840604",
".b c #4c460c",
".c c #bcc2bc",
".d c #3c0604",
".e c #b4820c",
".f c #141e04",
".g c #acaaa4",
".h c #74560c",
".i c #240604",
".j c #3c5e0c",
".k c #dca20c",
".l c #0c1204",
".m c #dce2dc",
".n c #ac060c",
".o c #543e0c",
".p c #9c720c",
".q c #3c2e0c",
".r c #848284",
".s c #e4b20c",
".t c #140204",
".u c #949694",
".v c #24320c",
".w c #b4b6b4",
".x c #5c5a5c",
".y c #741e0c",
".z c #3c3e3c",
".A c #ccd2cc",
".B c #bc920c",
".C c #ecf2ec",
".D c #746e74",
".E c #f4b20c",
".F c #1c1604",
".G c #94060c",
".H c #6c260c",
".I c #9ca29c",
".J c #5c0604",
".K c #84620c",
".L c #d40604",
".M c #5c4244",
".N c #646664",
".O c #cc9a0c",
".P c #747a74",
".Q c #f4ba0c",
".R c #0c0204",
".S c #c4cac4",
".T c #141a04",
".U c #8c8e8c",
".V c #c4bebc",
".W c #345204",
".X c #acb2ac",
".Y c #24160c",
".Z c #e4aa0c",
".0 c #e4eae4",
".1 c #544a2c",
".2 c #140e04",
".3 c #9c9e9c",
".4 c #2c2e2c",
".5 c #4c4a4c",
".6 c #f4faf4",
".7 c #a40604",
".8 c #242624",
".9 c #fcba04",
"#. c #44160c",
"## c #7c5e0c",
"#a c #14120c",
"#b c #c4020c",
"#c c #848a84",
"#d c #9c969c",
"#e c #bcbebc",
"#f c #dcdadc",
"#g c #c4920c",
"#h c #6c6e6c",
"#i c #3c363c",
"#j c #3c520c",
"#k c #7c160c",
"#l c #4c060c",
"#m c #b4aeac",
"#n c #340604",
"#o c #44720c",
"#p c #ecb20c",
"#q c #646264",
"#r c #747674",
"#s c #0c0e14",
"#t c #1c161c",
"#u c #9c0604",
"#v c #a4a2a4",
"#w c #6c0604",
"#x c #8c6a0c",
"#y c #dc0204",
"#z c #d49a0c",
"#A c #847e84",
"#B c #0c0604",
"#C c #cccac4",
"#D c #ecae0c",
"#E c #6c4e0c",
"#F c #343634",
"#G c #fcbe04",
"#H c #14160c",
"#I c #c4960c",
"#J c #040604",
"#K c #8c060c",
"#L c #c4c2c4",
"#M c #440604",
"#N c #b48a0c",
"#O c #1c1e1c",
"#P c #acaeac",
"#Q c #7c5a0c",
"#R c #3c6204",
"#S c #e4e2e4",
"#T c #542224",
"#U c #8c868c",
"#V c #1c0204",
"#W c #bcbabc",
"#X c #645e64",
"#Y c #444644",
"#Z c #d4d2d4",
"#0 c #f4f2f4",
"#1 c #0c0e0c",
"#2 c #64060c",
"#3 c #242224",
"#4 c #544e54",
"#5 c #6c666c",
"#6 c #643a0c",
"#7 c #742a0c",
"#8 c #ac7e0c",
"#9 c #342e0c",
"a. c #c48e0c",
"a# c #5c460c",
"aa c #4c3a0c",
"ab c #444244",
"ac c #7c7a7c",
"ad c #949294",
"ae c #eceaec",
"af c #342e34",
"ag c #fcfafc",
"ah c #2c262c",
"ai c #4c360c",
"aj c #6c521c",
"ak c #2c060c",
"al c #b4b2b4",
"am c #8c8a8c",
"an c #a47a0c",
"ao c #b4060c",
"ap c #442e0c",
"aq c #140e14",
"ar c #7c7674",
"as c #34560c",
"at c #e4ae0c",
"au c #4c4e4c",
"av c #a4a6a4",
"aw c #cccecc",
"ax c #745a0c",
"ay c #dca60c",
"az c #848684",
"aA c #949a94",
"aB c #b4bab4",
"aC c #5c5e5c",
"aD c #747274",
"aE c #f4b60c",
"aF c #940a0c",
"aG c #84660c",
"aH c #f4be0c",
"aI c #dcdedc",
"aJ c #3c3a3c",
"aK c #1c1a1c",
"aL c #dc0604",
"aM c #d49e0c",
"aN c #6c520c",
"aO c #c4c6c4",
"aP c #e4e6e4",
"aQ c #1c0604",
"aR c #d4d6d4",
"aS c #f4f6f4",
"aT c #545254",
"aU c #6c6a6c",
"aV c #7c7e7c",
"aW c #eceeec",
"aX c #343234",
"aY c #fcfefc",
"aZ c #2c2a2c",
"a0 c #84060c",
"a1 c #141e0c",
"a2 c #acaaac",
"a3 c #e4b214",
"a4 c #0c0a0c",
"a5 c #1c160c",
"a6 c #5c060c",
"a7 c #241e24",
"a8 c #d4060c",
"a9 c #141a0c",
"b. c #c4bec4",
"b# c #34520c",
"ba c #140e0c",
"bb c #a4060c",
"bc c #fcba0c",
"bd c #7c5e14",
"be c #141214",
"bf c #bcbec4",
"bg c #c49214",
"bh c #6c6e74",
"bi c #3c5214",
"bj c #34060c",
"bk c #9c060c",
"bl c #0c060c",
"bm c #cccacc",
"bn c #fcbe0c",
"bo c #141614",
"bp c #04060c",
"bq c #44060c",
"br c #3c620c",
"bs c #e4ae14",
"bt c #4c4e54",
"bu c #9c9a9c",
"bv c #a4a6ac",
"XX c None",
/* pixels */
"XXXXXXXXXXXXXXXXXXXXXXXXXXXXXXXXXXXXXXXXXXXXXXXXXXXXXXXXXXXXXXXXXXXXXXXXXXXXXXXXXXXXXXXXXXXXXXXX",
"XXXXXXXXXXXXXXXXXXXXXXXXXXXXXXXXXXXXXXXXXXXXXXXXXXXXXXXXXXXXXXXXXXXXXXXXXXXXXXXXXXXXXXXXXXXXXXXX",
"XXXXaYaYaYaYaYaYaYaYaYaYaYaYaYaYaYaYaYaYaYaYaYaYaYaYaYaYaYaYaYaYaYaYaYaYaYaYaYaYaYaYaYaYaYaYXXXX",
"XXXXaY#WbmaYaYaYaw.waYavaIaYaYaYaYaYaW#vaSaYaYaYaYaYaYaYaYaYaYaYaYaYaYaYaYaYaY.AalaYa2#faYaYXXXX",
"XXXXaY.3.uawaY#Zbu.uaYal#SaYaYaYaYaYaP#raWaYaYaYaYaYaYaYaYaYaYaYaYaYaYaYaYaYaR#W#WaYazaOaYaYXXXX",
"XXXXaY#vaVadaWbuaV#daYaW.6aYaY#0aWaSaParaW#0aSaYaWagaS#0aY#0aW#0aYaY#0aW#0aWad#PaWaWaz#e#0aYXXXX",
"XXXXaY.3#PaW.PaP.waAaY#AawaYaS#raraBaP.PaW#P.IaYaraRaO#caY.UaraAaYaYav#r#rac#rac#r.Par.P#vaYXXXX",
"XXXXaY#v#PagaPag.w#daYaVawaRadaPaP#0aPar.U#LaWaY.PaRaO#UaY.U.XaWaY.ubm.caVaP.U#PaPaP.raBaWaYXXXX",
"XXXXaY.3#PaYaYaY.waAaY#A.Aaw#AaYaYaYaP#r#raOaYaYaraRaO#caYbm#WaOaYaVawaw.raY.u.waYaYazbmaYaYXXXX",
"XXXXaY#v.XaYaYaY#W.uaY#A.AaRbuaIaIaWaParadbfaeaY.u.SalamaY#Sav#daYaV#W#L.3aY.u#WaYaYazaOaYaYXXXX",
"XXXXaY.3#PaYaYaY.w.uaYaVawaYaS#r#r.waP#raW#P.3aYaY#v#razaY.U#raAaY#A.PavaYaY.u.waYaY#UaOaYaYXXXX",
"XXXXaYaSagaYaYaYagaSaYaSaYaYaYaSaSagaYaSaY.6agaYaYaS#L#caYagaSaSaYaSaSagaYaY.6agaYaYaSagaYaYXXXX",
"XXXXaYaYaYaYaYaYaYaYaYaYaYaYaYaYaYaY.m.x.x.xamaY.x.xam#ZaYaYaYaYaYaYaYaYaYaYaYaYaYaYaYaYaYaYXXXX",
"XXXXaPaPaPaPaPaPaPaPaPaPaPawavavavbvad#FaJaKaX#v#Y#Y#h#PaPaPaPaPaPaPaPaPaPaPaPaPaPaPaPaPaPaPXXXX",
"XXXX#Lb.#eb.bf.Vbfb.b.bfb.aV....a4a4#3ad.U#Y#s#1#W#WbhaKbfb.b.bf.Vbfb.#eb.bf.Vb.bf#L.V.cb.#LXXXX",
"XXXXaYaYaYaYaYaYaYaYaYaYaY#v....#rbuaV....aD#W#W#W#W#h#3aYaYaYaYaYaYaYaYaYaYaYaYaYaYaYaYaYaYXXXX",
"XXXXawbmawbmawbmaw#Cbm#Y.zaT#rar#i.8aJad.Ua2#W#e#W#ea2az.zal#CawbmawbmawbmawbmawbmbmbmbmbmawXXXX",
"XXXX#f#f#faIaR#fbu.N.N.5.5auaTbt.x.xaU#W#h.u#W#W#W#W#W#v...w#faIaR#f#f.X#q.N#q.N#q.N.N#P#f#fXXXX",
"XXXX#0.C#0aW.A#Z#ha7#OacaV#X#3.8.ua2bububoaDalaAbu.X#e.g#3al.m#0#0.CaI.U.T.T.Ta9#H.....U#0.CXXXX",
"XXXX#W#e#Wav....aTaAbua4..#Y#W#W#W.N..bp...Daz....az#W#W#W#3.N#W#e#Wab.v.#.#.#.##o....aD#W#eXXXX",
"XXXXaS.xbo.8#Uaz.5bobe.3#v#PalboaK#s....bgajabavav.wacaZ#W.8#s#tbo#ta4#B.lba#1.l#9aya5adaSaSXXXX",
"XXXXaRab..bebubu.5aK.D#W#rau.5....aibd#JayaN#F#W#4auaCaUbtbi.W.W.W.Wa1bja0.a.iai#8#Ga5#AaR#fXXXX",
"XXXX#ZaDafba#h.U.5#3az.waba5ai....#Q#z..ay#EaZazaJaJ.xaD..b#.j#Rbr.j.b.H.7#ybj#Q.9.9.YacawawXXXX",
"XXXXaYaY.u....aV.5....alaba#a3.R..#Q.O#Bay#E....aB#W#h.....R.R.R..#Banan.ta8#n#Q.9aH.YaAaYaYXXXX",
"XXXX#W#Wbh....aVbuaD..al#Wac#a.Q.q#Q.9.Q.9#E..............ao.Lbb.R#p.Qbcbs.R..#Q.9.9.YaD#W#eXXXX",
"XXXXaWaeaR#v...8#5#r..#F.Uac#Baa.paM.kaaat#E.f.j#R.jbras...d.G.7..#D.9.9#p....#Q.9#G.F.UaeaeXXXX",
"XXXX#S.m#SaO....aTazabblac.u.5bpax#I.O#J.K.q.T#j.W#j.W#j#E#E#7#w..#p.9.9.EaN.Fax.9#G.Yaz#S.mXXXX",
"XXXXaO#L#L.X#3bl.5amaAa4aU#P#m....#E#N.....taQ#V#V.Rba.q.9.9#Q....#D.9.9.9.9.o#x.9.Q.Y#r#LaOXXXX",
"XXXXaYaYaYaYaY.4...8bua4..ab#P.......R....a0#y#y#ybq#E.9.9.9.h.....E.9.9.9.9.9#G.9#G.Y.uaYaYXXXX",
"XXXXaObmaOaObm#3...8buaVafab#W.3ah..#O.3bu.Ma6#y#y#b#kai.9bc.Zan..#D.9.9.9.9.9.9.9.9a5araObmXXXX",
"XXXX#SaIaI#SaI.uabbe.5adaJ#3aC#W.P.NaD#W.Nah#M#y#yaLa0.Y.9.9bn.B..#D.9bc.9.9bc.9.9#G.YazaIaIXXXX",
"XXXXaWaWaWaWaWaWaD....adauaK#1#W#Wa2.UadaJ.4#T.naL#ybk#..B#p.9.Oap.E.9.9.9.9.9.9.9.Q.Y.UaW#0XXXX",
"XXXX#W#W#W#W#W#W.x.....Ubu#q#s#W#W#q....#v#Waz.Ra8#y#y#b..aM.9.9.9.9.9.9.9bc.9.9.9#G.Y#h#W#WXXXX",
"XXXXag.6ag.6ag.6aS.w..a4#5#q..#1ad.w#Pal#WaTbl.Ra8#y#y#b...OaH.9.9bc.9.9#D.2#g.9.9.9.Y.uagagXXXX",
"XXXX#Z#Z#Z#Z#Z#Z#Z#v.....Naz#X..ad#Wavab#Y.Nacac#lao#y.L#K#6.e.9.9.9.9.9#p..a..9.9#Ga5aV#Z#ZXXXX",
"XXXXaR#ZaR.AaR.A#Z.waCbpab#rad..aC.u.g#Y#Yambvar..#u#y#y#yakaG#G.9.9.9#G#D..##.O#G.9.YaV#ZaRXXXX",
"XXXXag.6.6ag.6ag.6ag.6be..#i.U#1#B.x#W#W#m.X#A#sbaaFa8#y#y#n.K#p.9bc.9.9#p....#Q.Q.sa5.uag.6XXXX",
"XXXX#e#W#W#W#W#W#W#W#Wba..#Fbubu#3.x#W#W#t..aJ#W#W#i#2#y#y#y#2ap.9.9.9.9#D....#Q.O.R..aD#W#WXXXX",
"XXXXaWaW.CaW.CaW.CaW.CaO#Yaq.4bu.8bo#Y#W.u.U.3#WaB#i.J#y#y#y#w.q.9.9.9.9#p....a5.1#LaOaIaW.CXXXX",
"XXXX#SaI#SaI#SaI#SaIaIaI#4..a4#daCah#3#e#W#e#W#W.Na7#na0#y#ybb.yaGaEbn.9#D..#Y.xaDaIaIaIaI#SXXXX",
"XXXXbmaOaObm#LaOaObmaObm.Na7a4aVadaT#Obu.wbvbubu...8#O#V#y#y#ybb..#pay.ObgaX#vaOaObmaObmaOaOXXXX",
"XXXXaYaYagaYaYaYaYaYaYagaYav....#raT....avau......al.uaQaL#y.L.n.R#pa#..beaYaYaYaYaYagaYaYaYXXXX",
"XXXX#L#L#L#L#L#L#L#L#L#L#LaV....aqa4....#ta4aXavav#W.wad#V#V#V#V..a5arava2#L#L#L#L#L#L#L#L#LXXXX",
"XXXXaP#SaP.maP#SaP.m#SaP.mbm.U.....5aV..azaA#PaP#S#S#S#f.ubuaA#daA#d.S#S#SaP.maP#SaP.maP#SaPXXXX",
"XXXXae.0aeae.0ae.0aeae.0aeaeaIaJaJ.UbmaJaRaeae.0ae.0ae.0aeae.0ae.0aeae.0ae.0ae.0ae.0ae.0aeaeXXXX",
"XXXX#e#W#W#W#W#W#W#W#W#W#W#W#e#W#W#W#W#W#W#W#W#W#W#e#Wbf#W#W#W#W#W#W#W#W#W#W#W#W#W#W#W#W#W#WXXXX",
"XXXXXXXXXXXXXXXXXXXXXXXXXXXXXXXXXXXXXXXXXXXXXXXXXXXXXXXXXXXXXXXXXXXXXXXXXXXXXXXXXXXXXXXXXXXXXXXX",
"XXXXXXXXXXXXXXXXXXXXXXXXXXXXXXXXXXXXXXXXXXXXXXXXXXXXXXXXXXXXXXXXXXXXXXXXXXXXXXXXXXXXXXXXXXXXXXXX",
};
