<svg xmlns="http://www.w3.org/2000/svg" data-name="Layer 1" width="605.9236" height="564.84933" viewBox="0 0 605.9236 564.84933" xmlns:xlink="http://www.w3.org/1999/xlink"><path d="M502.1518,421.57533a127,127,0,1,1,127-127h0A127.1441,127.1441,0,0,1,502.1518,421.57533Zm0-252a125,125,0,1,0,125,125A125,125,0,0,0,502.1518,169.57533Z" transform="translate(-297.0382 -167.57533)" fill="#f2f2f2"/><path d="M422.51342,299.12818c-3.52922-12.86713,24.9356-23.90095,32.41041-13.539,1.0394-1.47315,4.88057-2.368,6.643-1.91606a13.74456,13.74456,0,0,1,4.69074,2.67528c1.98838,1.52744,4.049,3.10909,5.26914,5.30533,1.22922,2.18719,1.419,5.16979-.23494,7.06776-1.31053,1.50934-5.17884,2.48546-7.14912,2.88314-1.37375.28017-2.53065.50613-3.52481.6688a6.73917,6.73917,0,0,1-1.175-4.45575,5.46976,5.46976,0,0,0-2.386,4.0129c-.02714.3344,11.10774,41.30387,11.10774,41.30387a24.28659,24.28659,0,0,1-4.20272,1.88892,52.84847,52.84847,0,0,1-6.55258-14.2801,45.76145,45.76145,0,0,0,.12655,10.1678,55.94422,55.94422,0,0,0,.958,5.63068c-13.23171,2.85606-33.13345,1.91612-41.79191-10.231l-.00436-.15087a2.067,2.067,0,0,0-3.993-.72083c-.21007.53593-.4034.9998-.57594,1.36878C409.60712,327.78778,412.86984,317.34885,422.51342,299.12818Z" transform="translate(-297.0382 -167.57533)" fill="#2f2e41"/><polygon points="187.875 543.116 197.734 543.033 202.098 504.12 187.548 504.243 187.875 543.116" fill="#a0616a"/><path d="M514.56032,722.75966,498.81456,712.0798l-.05941-7.055-3.3861.22676-10.49558.7235-2.57316.17119-1.86759,24.93457,7.396-.06708,1.26029-6.991,3.43148,6.95557,19.6013-.16356a4.40843,4.40843,0,0,0,2.43855-8.05509Z" transform="translate(-297.0382 -167.57533)" fill="#2f2e41"/><polygon points="89.571 539.272 99.318 540.754 109.798 503.025 95.412 500.839 89.571 539.272" fill="#a0616a"/><path d="M413.96749,723.46435l-13.85287-13.04173,1.06013-6.9751-3.3792-.31309-10.47751-.95007-2.56775-.239-5.79814,24.32287,7.313,1.10665,2.353-6.70272,2.285,7.41172,19.37919,2.94694a4.40842,4.40842,0,0,0,3.6851-7.56644Z" transform="translate(-297.0382 -167.57533)" fill="#2f2e41"/><path d="M480.37889,438.8292l27.9528,50.06412S507.16533,591.858,510.8802,595.677s7.07835,7.24421,3.71488,7.21334-7.43443,8.15322-7.43443,8.15322l-6.957,77.3644h-17.543s-12.344-45.623-9.71291-71.64l-20.78211-95.07681s-14.93043,89.91336-17.62121,92.60414-4.31391,2.67163-1.48426,5.372,0,8.80758,0,8.80758l-29.49756,61.22087-16-2.01786s2.77382-49.97893,12.433-71.43483V514.84821c-.72759,8.69349,33.30327-79.29559,12.49294-72.69149C419.0724,440.06732,480.37889,438.8292,480.37889,438.8292Z" transform="translate(-297.0382 -167.57533)" fill="#2f2e41"/><path d="M456.62044,343.36664l-28.4158-6.02767-5.64208,11.35677-19,11s12.24726,50.07615,12.17739,57.11907c-.17739,17.88093-28.78773,57.96457-7.17739,54.88093s26-16,32.9375-13.95767c28.62164,8.42591,62.63753,7.53271,51.0625-4.04233s-8.98851-88.62685-8.98851-88.62685l-22.41976-10.59522Z" transform="translate(-297.0382 -167.57533)" fill="#6c63ff"/><path d="M403.02522,525.22182a6.82107,6.82107,0,0,0-.70246-9.48794,6.54415,6.54415,0,0,0-.87624-.6344l4.75113-23.31742-10.98351-6.57369-3.055,32.64565a6.80218,6.80218,0,0,0,1.56779,8.15507,6.50964,6.50964,0,0,0,9.183-.65063Q402.96849,525.29093,403.02522,525.22182Z" transform="translate(-297.0382 -167.57533)" fill="#a0616a"/><path d="M396.95836,416.11734l.9137-42.49a20.02334,20.02334,0,0,1,20.9487-19.57178h0c8.68224.40563,6.369,3.87491,8.67525,12.25556,3.74751,13.6226,5.18895,21.49714,4.28449,23.40406-.30613.64572-.62875,1.26445-.93909,1.85963-1.59851,3.0654-2.75335,5.28035.18167,7.40216a14.65745,14.65745,0,0,0,3.75494,1.77766c1.32468.47064,2.28208.81064,2.34933,1.55967.06461.72512-.75358,1.47685-3.01969,2.7734-6.08439,3.4822-11.36058,24.29492-11.41212,24.50057l-17.65591,74.06367-14.06518-.69835Z" transform="translate(-297.0382 -167.57533)" fill="#6c63ff"/><path d="M573.93969,474.17035a6.82106,6.82106,0,0,1-5.81566-7.52944,6.54338,6.54338,0,0,1,.22821-1.05743l-19.1125-14.177,3.78154-12.2291,24.08208,22.2514a6.80217,6.80217,0,0,1,4.28132,7.11571,6.50963,6.50963,0,0,1-7.2679,5.65052Q574.02807,474.18389,573.93969,474.17035Z" transform="translate(-297.0382 -167.57533)" fill="#a0616a"/><path d="M568.03069,449.54961l-9.99966,9.91583-62.616-43.31736c-.17573-.11861-18.0057-12.08105-24.85949-10.60758-2.55241.54908-3.66343.53629-4.09977-.04645-.45034-.60229.035-1.49488.70626-2.73a14.65745,14.65745,0,0,0,1.60657-3.83126c.76655-3.53961-1.57248-4.41632-4.80979-5.62947-.62854-.23557-1.28194-.48045-1.94111-.75643-1.94694-.81476-6.13488-7.63732-12.4468-20.27768-3.88254-7.77689-7.92149-8.81311-1.73183-14.91508h0a20.02334,20.02334,0,0,1,28.6632.56909l29.06517,31.00734Z" transform="translate(-297.0382 -167.57533)" fill="#6c63ff"/><circle cx="147.59363" cy="146.15466" r="23.18303" fill="#a0616a"/><path d="M409.86016,300.93579c-3.52922-12.86713,24.9356-23.901,32.41041-13.539,1.0394-1.47315,4.88056-2.368,6.643-1.91606a13.74451,13.74451,0,0,1,4.69075,2.67528c1.98838,1.52744,4.049,3.10909,5.26914,5.30533,1.22922,2.18719,1.419,5.16979-.23494,7.06776-1.31053,1.50934-5.17884,2.48546-7.14913,2.88314-1.37374.28017-2.53064.50612-3.5248.6688a6.73911,6.73911,0,0,1-1.175-4.45575,5.46974,5.46974,0,0,0-2.386,4.0129c-.02714.3344,11.10773,41.30387,11.10773,41.30387a24.28612,24.28612,0,0,1-4.20271,1.88892,52.84847,52.84847,0,0,1-6.55258-14.2801,45.76145,45.76145,0,0,0,.12655,10.1678,55.94422,55.94422,0,0,0,.958,5.63068c-13.23171,2.85606-33.13345,1.91612-41.79191-10.231l-.00436-.15087a2.067,2.067,0,0,0-3.99295-.72083c-.21007.53593-.4034.9998-.57594,1.36878C396.95386,329.59539,400.21658,319.15646,409.86016,300.93579Z" transform="translate(-297.0382 -167.57533)" fill="#2f2e41"/><path d="M418.53253,288.81574" transform="translate(-297.0382 -167.57533)" fill="#2f2e41"/><path d="M351.29707,714.73735a2.26934,2.26934,0,0,1-1.64468-3.93332l.1555-.6182q-.03072-.07427-.06179-.14839a6.09416,6.09416,0,0,0-11.24138.04177c-1.83859,4.42817-4.17943,8.86389-4.7558,13.54594a18.02917,18.02917,0,0,0,.31648,6.20047,72.28153,72.28153,0,0,1-6.57515-30.02077,69.76621,69.76621,0,0,1,.43275-7.783q.3585-3.17779.99471-6.31033A73.119,73.119,0,0,1,343.41782,654.722a19.459,19.459,0,0,0,8.093-8.39652,14.84349,14.84349,0,0,0,1.34991-4.05618c-.394.05168-1.48556-5.94866-1.18841-6.3168-.54905-.83317-1.53177-1.24732-2.13143-2.06034-2.98233-4.0434-7.0912-3.33741-9.23621,2.15727-4.58224,2.31266-4.62659,6.14806-1.815,9.83683,1.78878,2.34681,2.03456,5.52232,3.60408,8.03478-.1615.20671-.32944.407-.4909.61366a73.59114,73.59114,0,0,0-7.681,12.16859,30.5924,30.5924,0,0,0-1.8264-14.20958c-1.74819-4.21732-5.02491-7.76915-7.91045-11.415a6.27922,6.27922,0,0,0-11.184,3.08333q-.00886.08063-.01731.16119.64288.36267,1.25863.76992a3.0782,3.0782,0,0,1-1.24106,5.60174l-.06277.00968a30.62792,30.62792,0,0,0,.80734,4.57937c-3.70179,14.31579,4.29011,19.5299,15.70147,19.76413.25191.12916.49739.25832.74929.38108a75.11519,75.11519,0,0,0-4.04327,19.02779,71.24458,71.24458,0,0,0,.05168,11.50323l-.01938-.13562A18.82562,18.82562,0,0,0,319.759,694.9542c-4.9456-4.06264-11.93282-5.55869-17.26825-8.82425a3.533,3.533,0,0,0-5.41122,3.43708l.02182.14261A20.67373,20.67373,0,0,1,299.42,690.827q.6429.36276,1.25864.76992a3.07824,3.07824,0,0,1-1.24107,5.6018l-.06282.00964c-.0452.00646-.084.01295-.12911.01944a30.65462,30.65462,0,0,0,5.63854,8.82922c2.31463,12.49713,12.256,13.68283,22.89022,10.04354h.00649a75.09193,75.09193,0,0,0,5.0444,14.72621h18.02018c.06463-.20022.12274-.40693.18089-.60717a20.47477,20.47477,0,0,1-4.98629-.297c1.337-1.64059,2.674-3.29409,4.011-4.93462a1.12071,1.12071,0,0,0,.084-.09689c.67817-.8396,1.36282-1.67283,2.041-2.51246l.00036-.001a29.99039,29.99039,0,0,0-.87876-7.63984Z" transform="translate(-297.0382 -167.57533)" fill="#f2f2f2"/><path d="M297.70568,731.23466a1.18647,1.18647,0,0,0,1.19007,1.19h253.29a1.19,1.19,0,0,0,0-2.38h-253.29A1.18651,1.18651,0,0,0,297.70568,731.23466Z" transform="translate(-297.0382 -167.57533)" fill="#ccc"/><path d="M851.18128,224.69574H595.65812a23.09555,23.09555,0,0,0-23.09556,23.09556V633.60007a23.09564,23.09564,0,0,0,23.09556,23.09567H851.18128a23.09564,23.09564,0,0,0,23.09557-23.09564c33.89648-131.11389,34.939-259.794,0-385.80881A23.09557,23.09557,0,0,0,851.18128,224.69574ZM603.4197,603.24244a3.739,3.739,0,0,1-3.739,3.739h-9.66482a3.739,3.739,0,0,1-3.739-3.739v-9.66483a3.739,3.739,0,0,1,3.739-3.739h9.66482a3.739,3.739,0,0,1,3.739,3.739Zm0-38.14286a3.739,3.739,0,0,1-3.739,3.739h-9.66482a3.739,3.739,0,0,1-3.739-3.739v-9.66483a3.739,3.739,0,0,1,3.739-3.739h9.66482a3.739,3.739,0,0,1,3.739,3.739Zm0-38.14285a3.739,3.739,0,0,1-3.739,3.739h-9.66482a3.739,3.739,0,0,1-3.739-3.739V517.2919a3.739,3.739,0,0,1,3.739-3.739h9.66482a3.739,3.739,0,0,1,3.739,3.739Zm0-38.14286a3.739,3.739,0,0,1-3.739,3.739h-9.66482a3.739,3.739,0,0,1-3.739-3.739V479.149a3.739,3.739,0,0,1,3.739-3.739h9.66482a3.739,3.739,0,0,1,3.739,3.739Zm0-38.14286a3.739,3.739,0,0,1-3.739,3.739h-9.66482a3.739,3.739,0,0,1-3.739-3.739v-9.66483a3.739,3.739,0,0,1,3.739-3.739h9.66482a3.739,3.739,0,0,1,3.739,3.739Zm0-38.14285a3.739,3.739,0,0,1-3.739,3.739h-9.66482a3.739,3.739,0,0,1-3.739-3.739v-9.66483a3.739,3.739,0,0,1,3.739-3.739h9.66482a3.739,3.739,0,0,1,3.739,3.739Zm0-38.14286a3.739,3.739,0,0,1-3.739,3.739h-9.66482a3.739,3.739,0,0,1-3.739-3.739v-9.66483a3.739,3.739,0,0,1,3.739-3.739h9.66482a3.739,3.739,0,0,1,3.739,3.739Zm0-38.14286a3.739,3.739,0,0,1-3.739,3.739h-9.66482a3.739,3.739,0,0,1-3.739-3.739v-9.66483a3.739,3.739,0,0,1,3.739-3.739h9.66482a3.739,3.739,0,0,1,3.739,3.739Zm0-38.14286a3.739,3.739,0,0,1-3.739,3.739h-9.66482a3.739,3.739,0,0,1-3.739-3.739v-9.66483a3.739,3.739,0,0,1,3.739-3.739h9.66482a3.739,3.739,0,0,1,3.739,3.739Z" transform="translate(-297.0382 -167.57533)" fill="#f2f2f2"/><rect x="289.23864" y="77.69183" width="17.14286" height="17.14286" rx="2.1811" fill="#6c63ff"/><path d="M824.56256,294.267H637.9483a1,1,0,0,1,0-2H824.56256a1,1,0,0,1,0,2Z" transform="translate(-297.0382 -167.57533)" fill="#e6e6e6"/><path d="M824.56256,256.55267H771.41949a1,1,0,0,1,0-2h53.14307a1,1,0,1,1,0,2Z" transform="translate(-297.0382 -167.57533)" fill="#e6e6e6"/><path d="M824.56256,331.98138H637.9483a1,1,0,0,1,0-2H824.56256a1,1,0,0,1,0,2Z" transform="translate(-297.0382 -167.57533)" fill="#e6e6e6"/><path d="M824.56256,369.69574H637.9483a1,1,0,0,1,0-2H824.56256a1,1,0,0,1,0,2Z" transform="translate(-297.0382 -167.57533)" fill="#e6e6e6"/><path d="M824.56256,407.4101H637.9483a1,1,0,0,1,0-2H824.56256a1,1,0,0,1,0,2Z" transform="translate(-297.0382 -167.57533)" fill="#e6e6e6"/><path d="M824.56256,445.12445H637.9483a1,1,0,0,1,0-2H824.56256a1,1,0,1,1,0,2Z" transform="translate(-297.0382 -167.57533)" fill="#e6e6e6"/><path d="M824.56256,482.83832H637.9483a1,1,0,0,1,0-2H824.56256a1,1,0,0,1,0,2Z" transform="translate(-297.0382 -167.57533)" fill="#e6e6e6"/><path d="M824.56256,520.55316H637.9483a1,1,0,0,1,0-2H824.56256a1,1,0,0,1,0,2Z" transform="translate(-297.0382 -167.57533)" fill="#e6e6e6"/><path d="M824.56256,558.267H637.9483a1,1,0,0,1,0-2H824.56256a1,1,0,0,1,0,2Z" transform="translate(-297.0382 -167.57533)" fill="#e6e6e6"/><path d="M824.56256,595.98187H637.9483a1,1,0,0,1,0-2H824.56256a1,1,0,0,1,0,2Z" transform="translate(-297.0382 -167.57533)" fill="#e6e6e6"/><path d="M796.89673,285.46271H668.19561a3.81206,3.81206,0,1,1,0-7.62411H796.89673a3.81206,3.81206,0,0,1,0,7.62411Z" transform="translate(-297.0382 -167.57533)" fill="#ccc"/><path d="M796.89673,323.177H668.19561a3.81206,3.81206,0,1,1,0-7.62412H796.89673a3.81206,3.81206,0,0,1,0,7.62412Z" transform="translate(-297.0382 -167.57533)" fill="#ccc"/><path d="M796.89673,360.89128H668.19561a3.81206,3.81206,0,1,1,0-7.62411H796.89673a3.81206,3.81206,0,0,1,0,7.62411Z" transform="translate(-297.0382 -167.57533)" fill="#ccc"/><path d="M796.89673,398.60557H668.19561a3.81206,3.81206,0,1,1,0-7.62412H796.89673a3.81206,3.81206,0,0,1,0,7.62412Z" transform="translate(-297.0382 -167.57533)" fill="#ccc"/><path d="M796.89673,436.31985H668.19561a3.81206,3.81206,0,1,1,0-7.62411H796.89673a3.81206,3.81206,0,0,1,0,7.62411Z" transform="translate(-297.0382 -167.57533)" fill="#ccc"/><path d="M796.89673,474.03414H668.19561a3.81206,3.81206,0,1,1,0-7.62411H796.89673a3.81206,3.81206,0,0,1,0,7.62411Z" transform="translate(-297.0382 -167.57533)" fill="#ccc"/><path d="M796.89673,511.74843H668.19561a3.81206,3.81206,0,1,1,0-7.62412H796.89673a3.81206,3.81206,0,0,1,0,7.62412Z" transform="translate(-297.0382 -167.57533)" fill="#ccc"/><path d="M796.89673,549.46271H668.19561a3.81206,3.81206,0,1,1,0-7.62411H796.89673a3.81206,3.81206,0,0,1,0,7.62411Z" transform="translate(-297.0382 -167.57533)" fill="#ccc"/><path d="M796.89673,587.177H668.19561a3.81206,3.81206,0,1,1,0-7.62412H796.89673a3.81206,3.81206,0,0,1,0,7.62412Z" transform="translate(-297.0382 -167.57533)" fill="#ccc"/><path d="M680.63318,256.932H647.32654a1,1,0,0,0,0,2h15.65332V291.5697a1,1,0,0,0,2,0V274.58531a15.6533,15.6533,0,0,1,15.6533-15.6533h0a1,1,0,0,0,0-2Z" transform="translate(-297.0382 -167.57533)" fill="#3f3d56"/><path d="M801.56256,595.12488c-.55225,0-7.56256-.44775-7.56256-1l6.56256-33.30664a1,1,0,0,1,2,0v33.30664A1.00005,1.00005,0,0,1,801.56256,595.12488Z" transform="translate(-297.0382 -167.57533)" fill="#3f3d56"/><path d="M877.147,247.79132a23.09555,23.09555,0,0,0-23.09546-23.09558h-258.489c10.45112,0,136.03152,7.38484,216.03674,16.70633a64.05482,64.05482,0,0,1,55.27837,50.44234c23.522,111.91117,19.22558,225.883-10.73064,341.75569a23.0956,23.0956,0,0,1-23.09546,23.09564h21A23.0956,23.0956,0,0,0,877.147,633.6001C911.04351,502.48621,912.086,373.80609,877.147,247.79132Z" transform="translate(-297.0382 -167.57533)" fill="#e6e6e6"/><path d="M867.399,645.29926l-1.93652-.5c34.19433-132.26563,34.20605-261.85743.03613-385.17871a44.04252,44.04252,0,0,0-35.542-22.666L727.49175,229.6933l.14161-1.99512,102.46484,7.26123a46.03867,46.03867,0,0,1,37.2085,23.79834l.08789.21533A710.48954,710.48954,0,0,1,893.2442,450.2348C893.11529,513.83246,884.41949,579.46234,867.399,645.29926Z" transform="translate(-297.0382 -167.57533)" fill="#fff"/></svg>