<?xml version="1.0" standalone="no"?><!DOCTYPE svg PUBLIC "-//W3C//DTD SVG 1.1//EN" "http://www.w3.org/Graphics/SVG/1.1/DTD/svg11.dtd"><svg t="1653545855252" class="icon" viewBox="0 0 1024 1024" version="1.1" xmlns="http://www.w3.org/2000/svg" p-id="5241" xmlns:xlink="http://www.w3.org/1999/xlink" width="200" height="200"><defs><style type="text/css"></style></defs><path d="M234.666667 469.333333h85.333333a85.333333 85.333333 0 0 1 85.333333 85.333334v21.333333a85.333333 85.333333 0 0 1-85.333333 85.333333h-42.666667v85.333334h-42.666666V469.333333z m448 170.666667v106.666667h-42.666667V469.333333h149.333333v42.666667h-106.666666v85.333333h85.333333v42.666667h-85.333333zM618.666667 85.333333l277.333333 277.333334v490.645333A85.205333 85.205333 0 0 1 810.88 938.666667H213.12A85.333333 85.333333 0 0 1 128 853.333333V170.666667c0-47.125333 38.165333-85.333333 85.12-85.333334H618.666667z m-0.448 277.504h217.493333L618.666667 145.664l-0.448 217.173333zM853.333333 853.333333V405.333333H618.496c-23.466667 0-42.496-19.072-42.496-42.496V128H213.12C189.738667 128 170.666667 147.093333 170.666667 170.666667v682.666666c0 23.530667 19.093333 42.666667 42.453333 42.666667h597.76c23.424 0 42.453333-19.093333 42.453333-42.688zM426.666667 469.333333h64a106.666667 106.666667 0 0 1 106.666666 106.666667v64a106.666667 106.666667 0 0 1-106.666666 106.666667h-64V469.333333z m42.666666 234.666667h21.333334a64 64 0 0 0 64-64v-64a64 64 0 0 0-64-64h-21.333334v192z m-192-192v106.666667h42.666667a42.666667 42.666667 0 0 0 42.666667-42.666667v-21.333333a42.666667 42.666667 0 0 0-42.666667-42.666667h-42.666667z" fill="#3D3D3D" p-id="5242"></path></svg>