<?xml version="1.0" standalone="no"?><!DOCTYPE svg PUBLIC "-//W3C//DTD SVG 1.1//EN" "http://www.w3.org/Graphics/SVG/1.1/DTD/svg11.dtd"><svg class="icon" width="200px" height="200.00px" viewBox="0 0 1024 1024" version="1.1" xmlns="http://www.w3.org/2000/svg"><path fill="#333333" d="M921.6 819.2a25.6 25.6 0 0 1 4.608 50.7904L921.6 870.4H102.4a25.6 25.6 0 0 1-4.608-50.7904L102.4 819.2h819.2zM256 384A76.8 76.8 0 0 1 332.8 460.8v102.4A76.8 76.8 0 0 1 256 640H153.6A76.8 76.8 0 0 1 76.8 563.2V460.8A76.8 76.8 0 0 1 153.6 384z m307.2 0A76.8 76.8 0 0 1 640 460.8v102.4a76.8 76.8 0 0 1-76.8 76.8H460.8A76.8 76.8 0 0 1 384 563.2V460.8A76.8 76.8 0 0 1 460.8 384z m307.2 0A76.8 76.8 0 0 1 947.2 460.8v102.4a76.8 76.8 0 0 1-76.8 76.8h-102.4a76.8 76.8 0 0 1-76.8-76.8V460.8A76.8 76.8 0 0 1 768 384z m-614.4 51.2H153.6a25.6 25.6 0 0 0-25.6 25.6v102.4a25.6 25.6 0 0 0 25.6 25.6h102.4a25.6 25.6 0 0 0 25.6-25.6V460.8a25.6 25.6 0 0 0-25.6-25.6z m307.2 0H460.8a25.6 25.6 0 0 0-25.6 25.6v102.4a25.6 25.6 0 0 0 25.6 25.6h102.4a25.6 25.6 0 0 0 25.6-25.6V460.8a25.6 25.6 0 0 0-25.6-25.6z m307.2 0h-102.4a25.6 25.6 0 0 0-25.6 25.6v102.4a25.6 25.6 0 0 0 25.6 25.6h102.4a25.6 25.6 0 0 0 25.6-25.6V460.8a25.6 25.6 0 0 0-25.6-25.6zM921.6 153.6a25.6 25.6 0 0 1 4.608 50.7904L921.6 204.8H102.4a25.6 25.6 0 0 1-4.608-50.7904L102.4 153.6h819.2z" /></svg>