<?xml version="1.0" standalone="no"?><!DOCTYPE svg PUBLIC "-//W3C//DTD SVG 1.1//EN" "http://www.w3.org/Graphics/SVG/1.1/DTD/svg11.dtd"><svg t="1646752508663" class="icon" viewBox="0 0 1024 1024" version="1.1" xmlns="http://www.w3.org/2000/svg" p-id="4669" xmlns:xlink="http://www.w3.org/1999/xlink" width="200" height="200"><defs><style type="text/css"></style></defs><path d="M234.9 64C105.1 64 0 169.1 0 298.9l0 426.3c0 5.5 0.2 11 0.6 16.5 0 0.1 0 0.2 0 0.2 0.1 1.8 0.3 3.6 0.4 5.4 0 0.1 0 0.3 0 0.4 0.2 1.7 0.4 3.5 0.6 5.2 0 0.2 0 0.4 0.1 0.6 0.2 1.7 0.4 3.4 0.7 5.1 0 0.2 0.1 0.5 0.1 0.7 0.2 1.7 0.5 3.3 0.8 4.9 0 0.3 0.1 0.5 0.1 0.8 0.3 1.6 0.6 3.2 0.9 4.8 0.1 0.3 0.1 0.6 0.2 0.8 0.3 1.6 0.6 3.2 1 4.7 0.1 0.3 0.1 0.6 0.2 0.9 0.3 1.6 0.7 3.1 1.1 4.6 0.1 0.3 0.1 0.6 0.2 0.9 0.4 1.5 0.8 3 1.2 4.6 0.1 0.3 0.2 0.6 0.3 0.9 0.4 1.5 0.8 3 1.3 4.5 0.1 0.3 0.2 0.6 0.3 1 0.4 1.5 0.9 3 1.4 4.4 0.1 0.3 0.2 0.6 0.3 1 0.5 1.5 1 2.9 1.5 4.4 0.1 0.3 0.2 0.6 0.3 1 0.5 1.4 1 2.9 1.6 4.3 0.1 0.3 0.2 0.6 0.4 1 0.5 1.4 1.1 2.8 1.7 4.3 0.1 0.3 0.3 0.6 0.4 0.9 0.6 1.4 1.2 2.8 1.8 4.2 0.1 0.3 0.3 0.6 0.4 0.9 0.6 1.4 1.2 2.8 1.9 4.2 0.1 0.3 0.3 0.6 0.4 0.9 0.6 1.4 1.3 2.8 2 4.2 0.1 0.3 0.3 0.6 0.4 0.8 0.7 1.4 1.4 2.8 2.1 4.1 0.1 0.3 0.3 0.5 0.4 0.8 0.7 1.4 1.5 2.8 2.2 4.1 0.1 0.2 0.3 0.5 0.4 0.7 0.8 1.4 1.6 2.8 2.3 4.1 0.1 0.2 0.2 0.4 0.4 0.6 0.8 1.4 1.6 2.8 2.5 4.2 0.1 0.2 0.2 0.3 0.3 0.5 0.9 1.4 1.8 2.8 2.7 4.2 0.1 0.1 0.1 0.2 0.2 0.3 0.9 1.5 1.9 2.9 2.9 4.3 0 0 0 0 0 0.1 9.2 13.5 19.8 26.1 31.6 37.4 0.1 0.1 0.1 0.1 0.2 0.2 1.1 1.1 2.2 2.1 3.4 3.1 0.2 0.2 0.5 0.4 0.7 0.7 1 0.9 2.1 1.9 3.1 2.8 0.3 0.3 0.7 0.6 1 0.9 1 0.9 2 1.7 3 2.5 0.4 0.4 0.8 0.7 1.3 1.1 1 0.8 1.9 1.6 2.9 2.4 0.5 0.4 1 0.8 1.4 1.2 0.9 0.7 1.9 1.5 2.8 2.2 0.5 0.4 1.1 0.8 1.6 1.2 0.9 0.7 1.8 1.4 2.8 2 0.6 0.4 1.1 0.8 1.7 1.3 0.9 0.6 1.8 1.3 2.7 1.9 0.6 0.4 1.2 0.9 1.8 1.3 0.9 0.6 1.8 1.2 2.7 1.8 0.6 0.4 1.3 0.9 1.9 1.3 0.9 0.6 1.8 1.1 2.7 1.7 0.7 0.4 1.4 0.9 2 1.3 0.9 0.5 1.8 1.1 2.7 1.6 0.7 0.4 1.4 0.8 2.1 1.3 0.9 0.5 1.8 1 2.7 1.5 0.7 0.4 1.5 0.8 2.2 1.2 0.9 0.5 1.8 1 2.7 1.5 0.8 0.4 1.5 0.8 2.3 1.2 0.9 0.5 1.8 0.9 2.7 1.4 0.8 0.4 1.6 0.8 2.3 1.2 0.9 0.4 1.8 0.9 2.7 1.3 0.8 0.4 1.6 0.8 2.4 1.1 0.9 0.4 1.8 0.8 2.7 1.2 0.8 0.4 1.6 0.7 2.5 1.1 0.9 0.4 1.8 0.8 2.7 1.1 0.8 0.4 1.7 0.7 2.5 1 0.9 0.4 1.8 0.7 2.7 1.1 0.9 0.3 1.7 0.7 2.6 1 0.9 0.3 1.8 0.7 2.7 1 0.9 0.3 1.8 0.6 2.6 0.9 0.9 0.3 1.8 0.6 2.7 0.9 0.9 0.3 1.8 0.6 2.7 0.9 0.9 0.3 1.8 0.6 2.7 0.9 0.9 0.3 1.8 0.6 2.8 0.8 0.9 0.3 1.8 0.5 2.7 0.8 0.9 0.3 1.9 0.5 2.8 0.8 0.9 0.2 1.8 0.5 2.7 0.7 1 0.2 1.9 0.5 2.9 0.7 0.9 0.2 1.8 0.4 2.7 0.6 1 0.2 1.9 0.4 2.9 0.6 0.9 0.2 1.8 0.4 2.7 0.6 1 0.2 2 0.4 3 0.6 0.9 0.2 1.8 0.3 2.7 0.5 1 0.2 2 0.3 3 0.5 0.9 0.1 1.8 0.3 2.7 0.4 1 0.2 2.1 0.3 3.1 0.4 0.9 0.1 1.8 0.2 2.7 0.4 1.1 0.1 2.1 0.2 3.2 0.4 0.9 0.1 1.7 0.2 2.6 0.3 1.1 0.1 2.2 0.2 3.3 0.3 0.8 0.1 1.7 0.2 2.5 0.2 1.2 0.1 2.4 0.2 3.5 0.2 0.8 0 1.6 0.1 2.4 0.1 1.3 0.1 2.7 0.1 4 0.2 0.7 0 1.3 0.1 2 0.1 2 0 4 0.1 6 0.1L1024 960.2 1024 512 1024 64 234.9 64zM960 896 234.9 896c-1.4 0-2.8 0-4.2-0.1-0.8 0-1.6-0.1-2.4-0.1-0.6 0-1.2 0-1.8-0.1-1.1-0.1-2.2-0.1-3.3-0.2-0.3 0-0.5 0-0.8 0-1.3-0.1-2.7-0.2-4-0.3 0 0-0.1 0-0.1 0-38.1-3.6-73.7-19.9-101.7-46.7C85.5 818.7 67 778.8 64.4 736c0 0 0 0 0 0 2.7-42.8 21.2-82.7 52.3-112.5 31.9-30.6 73.9-47.5 118.2-47.5L960 576 960 896zM234.9 512c-67.3 0-128 28.3-170.9 73.7L64 298.9c0-45.6 17.8-88.5 50-120.8 32.3-32.3 75.2-50 120.8-50L960 128.1l0 384L234.9 512.1z" p-id="4670"></path></svg>