<?xml version="1.0" standalone="no"?><!DOCTYPE svg PUBLIC "-//W3C//DTD SVG 1.1//EN" "http://www.w3.org/Graphics/SVG/1.1/DTD/svg11.dtd"><svg t="1646715882192" class="icon" viewBox="0 0 1024 1024" version="1.1" xmlns="http://www.w3.org/2000/svg" p-id="5974" xmlns:xlink="http://www.w3.org/1999/xlink" width="200" height="200"><defs><style type="text/css"></style></defs><path d="M491.861333 523.434667H343.04c-61.781333 0-111.786667 47.701333-111.786667 106.581333 0 58.794667 50.005333 106.410667 111.786667 106.410667h356.949333V617.984c0-8.789333 5.12-16.725333 12.8-20.224a20.992 20.992 0 0 1 23.210667 4.010667l156.586667 149.333333a22.357333 22.357333 0 0 1 0 32.341333l-156.586667 149.333334a20.992 20.992 0 0 1-23.125333 4.010666 22.016 22.016 0 0 1-12.8-20.138666V807.594667H342.869333c-102.826667-0.085333-186.197333-79.616-186.197333-177.493334 0-98.133333 83.370667-177.664 186.197333-177.664H752.469333c61.696 0 111.786667-47.701333 111.786667-106.496s-50.090667-106.496-111.786667-106.496H370.688c-3.584 73.984-60.16 133.546667-131.925333 139.093334-71.68 5.546667-136.277333-44.714667-150.613334-117.248-14.250667-72.533333 26.197333-144.64 94.464-168.277334 68.181333-23.552 142.762667 8.704 174.08 75.434667h395.776c102.826667 0 186.197333 79.445333 186.197334 177.493333 0 98.133333-83.370667 177.578667-186.197334 177.578667H491.861333v-0.085333zM228.181333 305.493333a72.448 72.448 0 0 0 71.338667-73.386666 72.448 72.448 0 0 0-71.424-73.386667 72.448 72.448 0 0 0-71.338667 73.386667c0 40.533333 31.914667 73.386667 71.338667 73.386666z" fill="#737F86" p-id="5975"></path></svg>