<?xml version="1.0" standalone="no"?><!DOCTYPE svg PUBLIC "-//W3C//DTD SVG 1.1//EN" "http://www.w3.org/Graphics/SVG/1.1/DTD/svg11.dtd"><svg t="1646715744953" class="icon" viewBox="0 0 1024 1024" version="1.1" xmlns="http://www.w3.org/2000/svg" p-id="4479" xmlns:xlink="http://www.w3.org/1999/xlink" width="200" height="200"><defs><style type="text/css"></style></defs><path d="M864 160V896H576V517.504L506.496 448H160V160z" fill="#212121" opacity=".1" p-id="4480"></path><path d="M896 160v704l-32 32H576v-64h256V192H192v256H128V160l32-32h704z" fill="#212121" opacity=".75" p-id="4481"></path><path d="M32 992v-448h448v448z" fill="#212121" opacity=".1" p-id="4482"></path><path d="M480 1024h-448l-32-32v-448L32 512h448l32 32v448zM64 960h384V576H64z" fill="#212121" p-id="4483"></path><path d="M320 640v17.728a128 128 0 1 0 0 220.544V896h64v-256z m-64 192a64 64 0 1 1 64-64 64 64 0 0 1-64 64z" fill="#212121" p-id="4484"></path></svg>