<?xml version="1.0" standalone="no"?><!DOCTYPE svg PUBLIC "-//W3C//DTD SVG 1.1//EN" "http://www.w3.org/Graphics/SVG/1.1/DTD/svg11.dtd"><svg class="icon" width="200px" height="200.00px" viewBox="0 0 1024 1024" version="1.1" xmlns="http://www.w3.org/2000/svg"><path fill="#333333" d="M243.2 704C239.542857 677.825434 238.323809 654.842893 238.323809 621.007482L238.323809 297.975062C238.323809 259.670823 239.542857 230.304239 243.2 192.638404 221.257143 195.19202 212.114285 195.830424 181.028572 195.830424L124.952381 195.830424C96.304762 195.830424 82.895238 195.19202 64 192L64 273.077307C86.552381 270.523691 104.228572 269.246883 126.780952 269.246883L156.038095 269.246883 156.038095 621.007482C156.038095 654.204486 154.819048 679.102246 151.161905 704L243.2 704ZM496.693955 700.244499C528.498724 700.244499 548.376705 701.496333 571.733333 704L571.733333 621.378973C555.333999 624.508557 530.486522 626.386308 499.178702 626.386308L360.032834 626.386308C367.487077 602.601467 373.450472 590.08313 388.358957 570.053789 400.782696 553.154034 425.630172 526.865526 447.495951 507.462102 512.09939 451.755501 517.068885 446.748166 530.983472 430.474328 555.333999 401.682152 566.266888 371.638142 566.266888 330.327628 566.266888 244.577017 512.596339 192 425.630172 192 375.935219 192 336.676206 211.403423 311.82873 247.706602 293.441597 274.621027 284.496506 300.283619 277.539212 347.8533L348.602995 358.493887C352.081642 329.701711 355.560289 315.93154 364.00843 300.909535 376.432168 276.498778 398.297948 263.98044 427.121021 263.98044 469.361731 263.98044 495.700056 290.268948 495.700056 332.831296 495.700056 364.753056 481.785469 385.408313 436.066112 424.841076 386.371159 466.777506 371.462673 481.173594 354.06944 500.577017 321.76772 537.506113 299.404992 577.564792 285.987354 623.256724 279.527011 645.789728 276.048364 667.696819 273.066667 703.37408 290.4599 700.870413 298.411092 700.244499 337.173156 700.244499L496.693955 700.244499ZM601.6 576.615384C612.072727 612.307692 619.636364 628.307692 634.181818 645.538464 667.345453 685.538464 713.890912 704 781.963635 704 844.218182 704 893.090912 686.769229 925.090912 654.153843 946.618182 631.384616 960 597.538461 960 564.307692 960 528 951.27273 502.153846 932.07273 479.384616 911.709088 455.384616 890.181818 444.923077 848.87273 438.153846 879.709088 429.538461 892.509088 424.615384 905.309088 414.153846 930.32727 394.461539 945.454547 360.615384 945.454547 323.692308 945.454547 243.692308 882.618182 192 785.454547 192 738.909088 192 701.090912 203.076923 671.418182 225.846154 644.07273 246.769231 630.690909 268.307692 616.145455 313.846154L699.345453 328.615384C706.32727 303.384616 712.145453 292.923077 723.781818 281.230769 737.745453 268.923077 758.690912 262.153846 787.2 262.153846 836.654547 262.153846 864 286.153846 864 328.615384 864 376 829.67273 404.307692 771.490912 404.307692 746.47273 404.307692 733.67273 403.692308 715.054547 401.230769L715.054547 477.538461C734.836365 475.076923 751.709088 474.461539 777.309088 474.461539 802.909088 474.461539 830.254547 480.615384 844.218182 489.230769 865.163635 502.153846 876.8 525.538461 876.8 553.846154 876.8 602.461539 840.145453 633.846154 782.545453 633.846154 754.618182 633.846154 731.345453 625.846154 712.145453 609.846154 697.6 597.538461 692.363635 587.692308 684.8 559.384616L601.6 576.615384ZM64 768 960 768 960 832 64 832 64 768Z" /></svg>