<?xml version="1.0" standalone="no"?><!DOCTYPE svg PUBLIC "-//W3C//DTD SVG 1.1//EN" "http://www.w3.org/Graphics/SVG/1.1/DTD/svg11.dtd"><svg t="1646716014916" class="icon" viewBox="0 0 1024 1024" version="1.1" xmlns="http://www.w3.org/2000/svg" p-id="6805" xmlns:xlink="http://www.w3.org/1999/xlink" width="200" height="200"><defs><style type="text/css"></style></defs><path d="M512 1024C229.232 1024 0 794.768 0 512 0 229.232 229.232 0 512 0c282.768 0 512 229.232 512 512 0 282.768-229.232 512-512 512z m0-976C256.144 48 48 256.144 48 512s208.144 464 464 464 464-208.144 464-464S767.856 48 512 48z m1.248 762.8a24 24 0 1 1 0.032-48.032 24 24 0 0 1-0.032 48.032z m-2.656-145.616c-13.2 0-24-10.8-24-24V220.928c0-13.2 10.8-24 24-24s24 10.8 24 24v420.256c0 13.2-10.8 24-24 24z" p-id="6806"></path></svg>