<?xml version="1.0" standalone="no"?><!DOCTYPE svg PUBLIC "-//W3C//DTD SVG 1.1//EN" "http://www.w3.org/Graphics/SVG/1.1/DTD/svg11.dtd"><svg class="icon" width="200px" height="200.00px" viewBox="0 0 1024 1024" version="1.1" xmlns="http://www.w3.org/2000/svg"><path fill="#333333" d="M477.494857 936.502857c61.293714 61.275429 124.288 62.134857 187.282286-0.438857L936.064 665.234286c62.573714-62.573714 61.714286-125.988571 0.438857-187.282286L517.357714 59.648c-32.146286-32.146286-50.139429-34.285714-95.579428-34.285714H258.925714c-45.421714 0-59.574857 11.154286-91.702857 43.282285l-98.578286 98.56c-32.566857 32.585143-43.282286 46.72-43.282285 92.16v162.852572c0 44.982857 1.700571 63.433143 34.285714 95.561143z m46.299429-51.858286L108.068571 468.937143c-8.576-8.594286-13.714286-17.572571-13.714285-31.725714v-180.845715c0-13.293714 4.717714-22.308571 13.714285-31.286857l116.571429-116.571428c9.435429-9.014857 18.011429-14.153143 31.725714-14.153143h180.425143c14.573714 0 23.131429 5.577143 32.146286 14.153143l415.707428 415.268571c30.427429 30.445714 31.268571 63.451429-0.420571 94.72L618.477714 884.224c-31.268571 31.707429-64.274286 31.268571-94.72 0.420571zM309.065143 368.219429c33.426286 0 58.715429-26.148571 58.715428-58.715429 0-33.005714-25.289143-58.715429-58.697142-58.715429-33.444571 0-58.733714 25.709714-58.733715 58.697143 0 32.585143 25.289143 58.733714 58.715429 58.733715z" /></svg>