<?xml version="1.0" standalone="no"?><!DOCTYPE svg PUBLIC "-//W3C//DTD SVG 1.1//EN" "http://www.w3.org/Graphics/SVG/1.1/DTD/svg11.dtd"><svg t="1646716095059" class="icon" viewBox="0 0 1024 1024" version="1.1" xmlns="http://www.w3.org/2000/svg" p-id="7605" xmlns:xlink="http://www.w3.org/1999/xlink" width="200" height="200"><defs><style type="text/css"></style></defs><path d="M898.362 499.287c-26.554 0-48.169 9.214-64.842 27.632-16.678 18.418-25.01 42.965-25.01 73.638 0 30.201 7.861 53.836 23.587 70.913 15.726 17.073 36.944 25.611 63.658 25.611 22.596 0 43.935-7.431 64.007-22.294v42.689c-20.072 12.016-44.256 18.024-72.543 18.024-37.934 0-68.44-12.172-91.513-36.52-23.077-24.348-34.613-55.89-34.613-94.63 0-43.004 12.449-77.669 37.342-103.994 24.893-26.325 58.2-39.488 99.927-39.488 24.019 0 44.567 4.269 61.638 12.808v46.011c-18.494-13.6-39.041-20.4-61.638-20.4zM612.687 735.5c-34.138 0-60.142-14.387-78-43.165h-0.947v37.001h-46.465V341.102h46.465v171.231h0.947c20.548-34.306 50.578-51.465 90.09-51.465 32.87 0 58.992 11.584 78.355 34.747 19.358 23.163 29.039 54.822 29.039 94.98 0 44.272-10.866 79.491-32.598 105.655-21.733 26.17-50.695 39.25-86.886 39.25z m52.393-211.666c-12.964-16.363-30.666-24.548-53.107-24.548-22.757 0-41.527 8.145-56.302 24.431-14.784 16.286-22.169 36.996-22.169 62.136v35.573c0 21.187 6.875 39.094 20.625 53.714 13.75 14.629 30.977 21.939 51.685 21.939 24.655 0 43.935-9.486 57.846-28.457 13.906-18.977 20.863-45.219 20.863-78.738 0-27.665-6.482-49.686-19.441-66.05z m-312.321 84.833H169.263l-42.392 120.669H64L231.847 288.5h60.881L460.58 729.336h-62.876l-44.945-120.669z m-84.211-233.08c-2.088-5.882-4.365-16.126-6.827-30.735h-1.423c-2.093 13.279-4.462 23.527-7.113 30.735l-66.003 183.276h147.936l-66.57-183.276z" p-id="7606"></path></svg>