<?xml version="1.0" standalone="no"?><!DOCTYPE svg PUBLIC "-//W3C//DTD SVG 1.1//EN" "http://www.w3.org/Graphics/SVG/1.1/DTD/svg11.dtd"><svg t="1646820355599" class="icon" viewBox="0 0 1024 1024" version="1.1" xmlns="http://www.w3.org/2000/svg" p-id="3872" xmlns:xlink="http://www.w3.org/1999/xlink" width="200" height="200"><defs><style type="text/css"></style></defs><path d="M874.666667 789.333333 149.333333 789.333333c-11.797333 0-21.333333-9.557333-21.333333-21.333333L128 298.666667c0-11.776 9.536-21.333333 21.333333-21.333333l64 0 0 42.666667L170.666667 320l0 426.666667 682.666667 0 0-85.333333 42.666667 0 0 106.666667C896 779.776 886.464 789.333333 874.666667 789.333333z" p-id="3873"></path><path d="M1002.666667 618.666667 277.333333 618.666667c-11.797333 0-21.333333-9.557333-21.333333-21.333333L256 128c0-11.776 9.536-21.333333 21.333333-21.333333l725.333333 0c11.797333 0 21.333333 9.557333 21.333333 21.333333l0 469.333333C1024 609.109333 1014.464 618.666667 1002.666667 618.666667zM298.666667 576l682.666667 0L981.333333 149.333333 298.666667 149.333333 298.666667 576z" p-id="3874"></path><path d="M746.666667 960 21.333333 960c-11.797333 0-21.333333-9.557333-21.333333-21.333333L0 469.333333c0-11.776 9.536-21.333333 21.333333-21.333333l64 0 0 42.666667L42.666667 490.666667l0 426.666667 682.666667 0 0-85.333333 42.666667 0 0 106.666667C768 950.442667 758.464 960 746.666667 960z" p-id="3875"></path></svg>