<?xml version="1.0" encoding="UTF-8" standalone="no"?>
<svg
   xmlns:dc="http://purl.org/dc/elements/1.1/"
   xmlns:cc="http://creativecommons.org/ns#"
   xmlns:rdf="http://www.w3.org/1999/02/22-rdf-syntax-ns#"
   xmlns:svg="http://www.w3.org/2000/svg"
   xmlns="http://www.w3.org/2000/svg"
   xmlns:sodipodi="http://sodipodi.sourceforge.net/DTD/sodipodi-0.dtd"
   xmlns:inkscape="http://www.inkscape.org/namespaces/inkscape"
   enable-background="new 0 0 2014 1674.641"
   version="1.1"
   viewBox="0 0 10000 8500"
   xml:space="preserve"
   id="svg5418"
   inkscape:version="0.48.4 r9939"
   width="100%"
   height="100%"
   sodipodi:docname="wave_jeszczewieksze.svg"><metadata
     id="metadata5436"><rdf:RDF><cc:Work
         rdf:about=""><dc:format>image/svg+xml</dc:format><dc:type
           rdf:resource="http://purl.org/dc/dcmitype/StillImage" /><dc:title></dc:title></cc:Work></rdf:RDF></metadata><defs
     id="defs5434" /><sodipodi:namedview
     pagecolor="#ffffff"
     bordercolor="#666666"
     borderopacity="1"
     objecttolerance="10"
     gridtolerance="10"
     guidetolerance="10"
     inkscape:pageopacity="0"
     inkscape:pageshadow="2"
     inkscape:window-width="1317"
     inkscape:window-height="744"
     id="namedview5432"
     showgrid="false"
     inkscape:zoom="0.024912384"
     inkscape:cx="-7577.1245"
     inkscape:cy="4844.0241"
     inkscape:window-x="49"
     inkscape:window-y="24"
     inkscape:window-maximized="1"
     inkscape:current-layer="svg5418" /><path
     d="m 44.883,6088.0787 c 0,867.8099 471.49754,1624.1118 1172.2959,2029.5129 V 4056.7746 C 516.40101,4462.1552 44.883,5220.3197 44.883,6088.0787 z"
     id="path5420"
     inkscape:connector-curvature="0" /><path
     d="M 7473.4,970.2098 C 5740.9526,43.0377 4195.9046,42.9866 2463.5594,970.2098 1873.3177,1286.0869 1275.8091,2000.3953 1275.8091,2754.4453 v 5363.0439 h 644.7423 V 2754.4453 c 0,-515.7323 620.4344,-1172.8076 1154.18,-1393.8796 1433.6421,-593.8241 2354.0081,-593.8241 3787.4454,0 533.7456,221.0873 1154.1801,878.1473 1154.1801,1393.8796 v 5363.0439 h 644.7424 V 2754.4453 c 0,-754.1014 -597.5085,-1468.3893 -1187.7504,-1784.2355 z"
     id="path5422"
     inkscape:connector-curvature="0" /><path
     d="m 8719.4888,4056.8769 v 4060.817 c 700.7781,-405.3703 1172.296,-1161.6517 1172.296,-2029.513 0,-867.7587 -471.4821,-1625.9541 -1172.296,-2031.304 z"
     id="path5424"
     inkscape:connector-curvature="0" /><path
     d="m 2587.4009,3712.2195 h -361.5194 c -139.1987,0 -252.0426,112.8438 -252.0426,252.0476 v 4246.3742 c 0,139.1987 112.8388,252.0427 252.0426,252.0427 h 361.5194 c 139.1984,0 252.0425,-112.844 252.0425,-252.0427 V 3964.2671 c 0,-139.2038 -112.8389,-252.0476 -252.0425,-252.0476 z"
     id="path5426"
     inkscape:connector-curvature="0" /><path
     d="m 7706.2421,3712.2195 h -361.5245 c -139.1935,0 -252.0427,112.8438 -252.0427,252.0476 v 4246.3742 c 0,139.1987 112.8492,252.0427 252.0427,252.0427 h 361.5245 c 139.1933,0 252.0425,-112.844 252.0425,-252.0427 V 3964.2671 c 0,-139.2038 -112.8492,-252.0476 -252.0425,-252.0476 z"
     id="path5428"
     inkscape:connector-curvature="0" /><path
     d="m 2865.0202,5880.8236 c 22.1174,-1.1208 44.2298,-0.9416 66.3472,0 1.008,23.3198 18.5455,124.8852 22.8799,489.2343 0,7.3589 1.5251,14.5798 3.7254,21.6212 3.5363,67.5499 -3.4182,109.1902 4.4421,134.5775 1.9753,66.0351 0.2712,132.2033 0.8085,198.2792 h 53.564 c 54.9352,-191.867 44.9562,-444.1296 50.8721,-588.5532 5.4755,-15.8793 3.1421,-32.8843 4.4418,-49.3011 3.1472,-10.4445 8.1726,-51.133 8.9708,-58.9474 1.8833,1.9294 5.6958,5.7878 7.579,7.717 0.4041,24.7019 1.5096,26.0886 10.2706,65.6719 1.7501,0 5.2915,-0.052 7.0415,-0.052 2.1546,-9.0632 4.4881,-17.9876 6.7295,-27.0046 l 3.362,-0.052 c 1.0338,23.5964 -3.6794,48.0012 3.5004,70.9221 2.5128,22.3835 -2.5998,45.4886 4.3497,67.2888 0.5835,8.6127 0.8957,17.1791 1.346,25.8378 2.8248,-4.708 5.7417,-9.4673 8.6585,-14.1751 0.2662,-67.1865 2.0881,3.449 4.5751,-89.4472 1.5709,2.8249 4.7079,8.4793 6.279,11.3041 1.6172,0.092 4.8002,0.2261 6.3711,0.3122 13.4998,-60.856 13.1005,-93.6177 18.6634,-265.3886 41.7172,-1.0748 83.4854,-1.346 125.2025,0.2259 0.092,11.8418 -0.092,23.9546 3.9914,35.2591 3.4645,67.8312 7.3334,54.7766 10.3168,96.852 7.9525,14.9069 11.6627,16.4369 27.0968,106.0019 2.016,0 6.0538,0 8.075,0.05 2.3235,-50.8208 5.1074,-10.0301 4.9333,-67.4679 l 4.4419,0.052 c 0.4912,19.1083 -2.8708,38.9384 3.5003,57.4633 1.5249,17.9006 -1.5709,36.4718 4.442,53.8302 1.571,17.9006 -1.5712,36.5126 4.488,53.8297 1.571,17.901 -1.5711,36.4719 4.4878,53.8302 1.8833,19.3797 -2.0162,39.4757 4.442,58.2719 2.2414,20.9044 -2.3796,42.5719 4.488,62.8469 1.5249,17.9007 -1.5249,36.4719 4.4418,53.8301 4.8564,77.3137 7.753,88.1525 14.6257,110.6691 2.1543,-2.1085 6.4582,-6.2792 8.6585,-8.3875 -0.9569,-19.5638 4.0428,-49.3727 20.3674,-76.4387 3.5873,5.9207 7.2205,11.9338 10.9001,17.9007 0.092,2.1082 0.2713,6.325 0.358,8.4333 4.5752,8.4798 9.2883,17.1793 16.6879,23.6886 2.6612,-24.6863 1.3871,-18.8167 7.804,-44.8133 0.7934,-4.4519 5.7009,-41.1539 7.9423,-80.3892 6.1921,-18.8883 2.5127,-38.9385 4.3498,-58.364 6.8626,-20.2751 2.2006,-41.9423 4.488,-62.8009 0,0 34.5936,-332.3552 35.8423,-349.9028 5.1583,-14.1751 3.7256,-29.3841 3.7256,-44.0967 8.8378,0 17.7624,0 26.7384,-0.052 0,16.2376 -1.9292,32.9717 3.5874,48.5848 0.7779,18.0235 0.7573,211.6814 8.9709,237.8468 2.2873,20.8585 -2.4207,42.5258 4.4876,62.801 1.479,17.9006 -1.4377,36.4257 4.3498,53.7839 3.1319,61.3373 4.7336,50.6522 10.3168,88.9559 2.2006,2.0624 6.5964,6.1919 8.7918,8.2545 1.9753,-2.0214 5.9208,-6.013 7.896,-8.0295 5.6958,-17.5371 11.6166,-35.3509 10.5421,-54.1011 1.7962,1.9294 5.3373,5.7418 7.1335,7.6249 1.5712,5.0253 3.2292,10.0916 5.0254,15.117 0.046,4.2167 0.18,8.4335 0.3582,12.6502 3.7663,4.6671 7.671,9.4211 11.6627,14.0421 8.6738,-31.9427 7.8654,-27.9665 12.1127,-50.7801 2.0163,-1.9291 6.0129,-5.7416 8.0294,-7.6709 -0.1337,7.4458 -0.1799,14.9837 -0.2261,22.4758 2.2005,1.9752 6.5504,5.8746 8.7458,7.85 13.2693,-78.3782 7.7528,-164.7039 23.7753,-306.7016 h 2.6459 c 1.3151,12.4863 2.3282,26.8716 13.5917,61.6802 0.2054,8.9654 10.5982,150.5538 33.0585,227.1666 1.9292,-1.9753 5.7877,-5.9669 7.717,-7.9831 12.8498,-102.7984 0.8699,90.087 27.2759,-402.0287 l 3.183,0.05 c 2.0624,8.0292 4.3089,16.0174 6.5504,24.0466 2.0213,-1.9291 6.013,-5.8749 8.029,-7.8502 0.783,-30.6071 0.343,-21.9689 6.1462,-47.9092 33.4626,-1.4377 66.9304,-1.4789 100.4392,-0.092 5.5934,32.1423 15.6695,91.3611 19.605,127.6689 2.0622,-1.9293 6.2379,-5.8338 8.3463,-7.804 0.6807,-18.3716 9.4773,-73.7776 14.9377,-89.3141 1.9293,1.9293 5.834,5.7417 7.7582,7.671 -0.1748,66.3318 0.4962,18.8065 4.8461,69.8884 2.1543,0.052 6.4121,0.052 8.5664,0.052 0,-9.017 0.046,-18.0338 0.1336,-27.0047 h 8.7918 c 1.2128,23.5503 -3.5873,47.9553 3.6334,70.876 1.9752,19.38 -2.1084,39.568 4.488,58.3641 1.525,17.9006 -1.5253,36.4719 4.3958,53.8302 2.3282,43.2267 10.0914,100.5316 13.2795,112.1019 -1.7757,36.1135 46.5377,180.6138 50.6009,276.56 2.1954,-2.0214 6.5504,-6.0998 8.7457,-8.1214 0.3122,-7.2665 0.7166,-14.5335 1.3459,-21.7592 4.529,-14.4872 3.4544,-29.8291 4.3499,-44.7669 5.7877,-17.4044 2.8708,-35.9343 4.3958,-53.8302 5.9669,-17.3632 2.8708,-35.9344 4.4828,-53.8298 5.9207,-17.3583 2.9168,-35.9346 4.488,-53.8762 3.5668,-10.4292 8.7968,-84.8363 9.1089,-89.7183 0.4403,-1.6941 5.0047,-27.9105 9.1499,-45.6678 10.4499,-15.5213 17.9878,-32.7462 26.9178,-49.1221 1.6579,1.8832 4.9331,5.7419 6.5963,7.6712 14.8198,54.316 27.0046,208.2783 27.0046,208.2834 5.6343,85.9418 12.3685,122.5725 14.6662,147.2738 2.1085,2.0165 6.3714,6.013 8.4798,8.0295 0.3632,-4.4472 44.5522,-398.9942 45.8467,-442.9425 2.8708,-9.1039 5.6547,-18.2128 8.8377,-27.1836 2.1085,2.0161 6.2792,6.0538 8.3875,8.0754 0.047,2.9167 0.088,8.7044 0.088,11.6163 2.0622,0 6.238,-0.052 8.3004,-0.052 6.3456,-36.8606 6.325,-16.0685 10.8539,-68.2765 5.2044,-17.4503 2.5587,-35.8883 4.0839,-53.7837 3.408,-9.8716 3.8124,-20.3215 4.3499,-30.6382 10.1374,-0.088 20.367,-0.088 30.6378,-0.3121 3.7766,76.8326 16.5088,416.4958 27.9002,506.0145 14.2978,-27.3475 17.0256,-93.106 16.9539,-117.9357 2.6918,4.7077 5.4295,9.4212 8.2081,14.2213 5.1432,43.9839 6.6066,24.3893 10.0047,62.0433 2.1083,-1.9752 6.3251,-5.967 8.4793,-7.983 0.3584,-5.788 0.8548,-11.5296 1.4842,-17.2712 15.7462,-54.1067 20.5872,-409.618 27.1377,-438.9051 57.3302,-1.704 114.7067,-1.571 172.0369,-0.1335 12.8909,47.7608 -0.9466,8.3925 16.1967,54.5058 5.1585,-0.1799 10.3628,-0.3585 15.654,-0.5376 18.9652,60.6923 23.8524,187.2562 31.4005,210.2539 1.2128,19.1544 -1.1668,38.9845 6.7755,57.105 9.3751,-4.9791 18.0745,-21.3088 29.5171,-11.6163 1.5917,9.0526 5.8287,29.3894 8.5668,39.6088 0.4912,10.1836 0.2659,20.5001 1.7499,30.6378 4.8873,9.104 16.2838,5.5167 24.7631,6.9086 12.8704,46.9778 21.3651,90.2147 24.8964,114.2102 20.1728,-12.4045 22.6394,-25.8532 30.9551,-58.9882 5.6548,-10.1377 13.4128,-18.8426 21.7593,-26.8716 -0.046,-5.788 -0.046,-11.5756 0.046,-17.3173 1.9757,1.9291 5.8803,5.7877 7.8504,7.717 1.704,9.1959 3.8583,18.305 6.192,27.4549 1.8371,-1.9754 5.5626,-5.967 7.3997,-7.9423 3.3212,-12.1589 7.1797,-24.1336 11.1715,-36.0673 1.617,1.9293 4.8461,5.8747 6.4581,7.804 8.4181,36.3897 1.6478,18.2588 10.5418,107.7982 2.1955,-2.0216 6.5042,-6.013 8.6588,-7.9831 0.1335,-10.2296 0.358,-20.4546 1.0746,-30.6382 7.5787,-24.7169 1.346,-50.9131 4.4417,-76.2595 8.3875,-32.1629 0.6297,-65.8969 4.488,-98.6892 8.6128,-38.1298 0.3584,-77.8767 4.4881,-116.6359 8.5665,-38.1299 0.3583,-77.9228 4.4419,-116.6771 6.238,-18.5249 3.0499,-38.3548 3.5003,-57.4634 h 25.4797 c 12.7218,59.8533 -0.3839,69.515 9.5542,102.3688 2.2412,20.8586 -2.3337,42.5256 4.3958,62.8468 3.6332,71.2087 11.0127,81.6126 14.7126,111.2523 2.0622,2.0218 6.146,6.1002 8.2084,8.1217 11.1711,-30.9452 -2.0624,-56.8187 15.475,-114.0313 1.6168,0 4.9332,-0.05 6.5962,-0.05 0.3582,6.8519 8.9453,79.4016 15.9254,105.8689 16.3194,-34.7216 16.4269,-240.8868 16.3757,-276.6011 48.2673,-1.571 96.627,-1.3919 144.9402,0.1336 0.4044,5.6547 1.0337,11.7545 4.263,16.7338 6.2379,-1.8371 8.2543,-10.9 6.146,-16.5089 3.5002,0 10.4496,0.088 13.9501,0.088 0.9875,8.7048 2.1542,17.4043 4.667,25.8378 3.8123,31.2675 -3.8586,63.5685 4.4881,94.2473 3.1829,25.3006 -3.2753,51.5887 4.5288,76.2596 2.2415,20.8586 -2.3745,42.5258 4.3958,62.8009 3.0039,29.6093 -3.3211,60.1141 5.9208,89.002 1.7501,1.8371 5.2044,5.5627 6.9086,7.4457 4.9792,-9.2418 10.3627,-18.2998 16.8669,-26.6463 14.8354,50.8671 18.1566,103.5407 21.2168,154.1825 14.0883,-22.0101 7.6506,-40.8522 31.7177,-221.3792 5.4755,-5.7416 11.0332,-11.3964 16.6879,-17.0463 7.9114,-67.5651 6.5553,-93.3668 24.5841,-143.9985 3.6793,6.0537 7.2666,12.1998 10.9461,18.3921 30.9552,176.7808 15.0144,324.8683 53.3847,458.5556 -0.5834,25.9297 6.9544,51.1381 5.3836,77.068 -0.4044,10.3168 0.1797,20.7717 3.6795,30.5919 1.8371,33.1965 0.4501,66.4802 0.6702,99.7691 -0.1336,19.5127 5.6957,38.5339 5.2045,58.1388 h 8.3875 c 4.9792,-12.9623 5.2506,-26.7793 5.0712,-40.4172 -0.4913,-13.7251 3.7256,-26.9177 4.3088,-40.4635 0.7626,-16.9131 -1.3919,-33.9131 1.7503,-50.6469 5.3836,-24.9422 1.2997,-50.5549 3.6794,-75.7684 6.6833,-20.2751 2.1543,-41.9012 4.3958,-62.7598 5.4704,-15.8794 3.2291,-32.8845 4.529,-49.3013 3.6333,-10.4088 3.7664,-21.4879 3.9046,-32.3879 2.7378,-4.7081 5.5626,-9.4212 8.4794,-14.0883 0.052,3.5462 0.052,10.6342 0.052,14.1751 2.1546,2.0164 6.4173,6.1002 8.5665,8.1624 9.6258,-34.0461 10.0968,-83.6032 10.3627,-88.0603 6.7757,-20.2753 2.1546,-41.9014 4.442,-62.806 7.717,-24.6711 1.346,-50.9132 4.5288,-76.2599 7.8503,-26.1958 1.0747,-53.922 4.4421,-80.7472 7.3588,-24.4459 2.2004,-50.335 3.5002,-75.4103 l 2.963,0.052 c 23.4376,107.1588 -9.0271,108.4584 40.9547,295.0392 0.1799,19.1546 1.6121,38.2628 5.8338,56.9721 3.9455,6.279 7.9832,12.5171 12.1539,18.7502 11.1918,-97.0209 2.0315,-82.3545 6.4171,-124.9314 7.804,-26.1958 1.1669,-53.922 4.4829,-80.7475 7.804,-26.1959 1.1208,-53.9222 4.4829,-80.7477 7.584,-26.38 1.7962,-54.2801 3.7255,-81.2846 19.349,-9.4828 30.6276,-98.5667 31.9378,-119.9984 60.8765,-1.5249 121.8401,-1.4789 182.7117,0 0.092,11.8417 -0.2259,24.0008 4.0378,35.3049 7.0875,80.8297 5.3375,89.3297 5.2912,105.823 2.2415,-1.9753 6.6376,-5.8337 8.8379,-7.804 1.6017,-11.197 0,-4.9077 6.1921,-25.3464 h 5.9209 c 38.3548,175.3428 9.6462,494.1727 53.922,550.4795 23.8471,-50.6421 28.1868,-249.8831 29.4252,-259.7801 1.7348,-5.3017 39.8748,-340.0926 40.1512,-344.5192 h 3.6788 c 1.6121,28.0381 -4.1707,56.972 3.5873,84.3349 1.1209,16.4625 -0.8955,33.3756 4.2627,49.301 0.4914,6.9086 0.8956,13.863 1.3459,20.8586 5.6957,9.1091 11.5756,18.1667 17.1385,27.409 0.3581,9.4671 1.0334,19.0212 4.1245,28.0791 1.2128,16.4166 -1.0746,33.4626 4.4879,49.3472 2.2416,20.8586 -2.3337,42.4796 4.4419,62.7599 3.2751,26.7792 -3.4081,54.5464 4.4419,80.7476 3.4083,28.3043 -3.5465,57.5094 4.4881,85.2352 3.1575,52.9244 -3.132,116.5799 4.4419,139.0658 0.6295,10.1837 0.8545,20.4133 1.0746,30.6379 2.1952,2.0163 6.5501,6.0538 8.6996,8.0753 18.044,-120.7453 15.3827,-169.719 27.7208,-226.3634 l 2.6919,0.1337 c 11.335,48.0779 3.8739,24.7069 15.5672,64.5969 1.9293,-1.9294 5.8339,-5.8339 7.7632,-7.758 12.6093,-50.4423 27.6082,-370.9404 27.6748,-375.3825 l 3.6333,0.052 c 0.2261,2.2873 0.6705,6.8622 0.8546,9.1036 3.0963,-0.092 9.2832,-0.3581 12.3381,-0.4504 12.1129,43.2373 30.8683,223.0732 31.0883,223.7588 2.6458,22.2505 -5.2505,51.86 16.8672,66.4343 63.2869,-236.8132 49.0707,-333.5935 66.0349,-474.2967 58.9013,-1.1669 117.8437,-1.1669 176.7912,-0.092 1.617,5.788 3.3212,11.5296 5.1582,17.2713 0,0 26.8256,296.4722 26.8256,296.477 12.9365,182.6198 -7.4613,41.6505 23.6422,254.8932 2.1085,2.0214 6.2791,6.013 8.3876,7.9831 0.5987,-4.4471 21.6209,-134.6851 23.4172,-174.6828 19.8707,38.621 6.8982,36.1648 26.6002,68.9058 4.8872,-2.0212 10.0506,-3.275 15.4342,-3.8123 3.2291,4.2628 6.3711,8.7047 9.3752,13.3256 2.3794,0.2261 7.1335,0.6705 9.5132,0.8956 3.2289,-5.5626 6.4581,-11.079 9.8253,-16.5957 6.8114,-30.0392 17.1382,-86.7503 19.2005,-114.2564 l 3.6333,0.092 c 1.658,32.5213 -4.4877,65.8969 3.4084,97.7938 3.275,26.8253 -3.4084,54.5463 4.5288,80.7936 1.4381,17.9006 -1.3919,36.3795 4.3089,53.789 0.5375,7.8041 0.8955,15.6543 1.3459,23.5044 h 8.6125 c 0.1542,-4.4421 11.8776,-131.3076 23.8216,-180.9209 1.8371,1.8832 5.4706,5.6958 7.2665,7.5787 0.092,11.1714 0.1336,22.5627 3.9046,33.2429 0.9418,14.9836 -0.4502,30.4127 4.5752,44.859 1.3149,20.9663 -2.5793,17.7217 11.0792,111.6108 9.0629,-18.0338 8.2082,-38.2221 8.9246,-57.8215 7.2207,-23.2842 1.5713,-47.9091 4.4421,-71.7768 8.2084,-30.6842 0.7624,-62.9392 4.488,-94.2064 8.3412,-32.1629 0.5834,-65.8969 4.4417,-98.6894 8.1213,-29.1588 0.8087,-59.9299 4.4421,-89.7182 7.9831,-32.7465 1.658,-67.1097 3.5461,-100.5316 2.1955,-1.9293 6.5504,-5.8338 8.7459,-7.804 -0.1335,12.2459 -0.5374,24.85 3.7255,36.6049 0.9875,14.9375 -0.4914,30.4126 4.5289,44.8129 2.3334,20.8585 -2.4205,42.5719 4.4881,62.8471 2.2873,20.8586 -2.4208,42.5256 4.4876,62.7597 1.8834,19.4259 -1.9752,39.5217 4.442,58.3642 5.3017,88.1984 8.403,85.215 15.2089,111.5185 2.2006,2.2415 6.6376,6.6835 8.8379,8.8838 4.1708,-6.192 8.3414,-12.3788 12.5173,-18.6171 14.958,-66.6134 27.2398,-79.9851 32.8844,-169.0738 6.0691,-23.2588 35.0849,-295.505 35.1719,-299.9777 67.1097,-1.7038 134.2654,-1.5249 201.3753,0 -0.3584,130.6936 -1.2386,129.6241 3.587,142.8782 3.5873,29.8344 -3.7716,60.6055 4.442,89.7644 3.183,25.3005 -3.2752,51.5424 4.5289,76.2595 2.5126,22.3836 -2.6456,45.5348 4.3961,67.3351 2.7888,61.6801 4.0067,34.22 10.0502,85.0973 9.5084,5.3836 19.963,10.1374 25.9759,19.9169 56.0819,-9.5132 35.735,-150.4774 70.2317,-327.9848 V 5814.58 c -0.8904,-4.7439 -1.7452,-9.8765 -2.4974,-15.8744 -2.7839,-4.846 -5.4707,-9.6461 -8.0753,-14.4462 -18.3102,-101.7801 -2.3796,-19.7378 -14.8456,-195.6335 -1.5455,-4.4522 -12.7065,-101.074 -13.0086,-104.7021 -3.5873,-4.5749 -6.9545,-9.1499 -10.4958,-13.638 -13.4075,45.3251 -24.6453,164.269 -25.4334,193.7913 -4.5288,-6.1 -8.8838,-12.3382 -13.1004,-18.5251 v -8.3414 c -5.0715,-8.9248 -9.9588,-17.8547 -14.984,-26.6923 -2.2413,2.6455 -6.6834,7.896 -8.9299,10.5418 -4.887,0 -9.6462,-0.05 -14.3083,-0.05 -3.6332,-3.6335 -7.1335,-7.267 -10.5877,-10.9003 -4.2322,-26.5438 -4.7184,-20.1317 -10.2299,-97.7067 -6.5041,-18.796 -2.3794,-38.9381 -4.4878,-58.3639 -6.146,-17.3173 -2.7379,-35.8885 -4.488,-53.784 -4.2167,-13.8169 -3.7256,-28.3504 -5.9669,-42.4387 -1.0747,-1.837 -3.183,-5.5166 -4.2628,-7.3588 -3.183,-16.1044 -2.3336,-32.6133 -3.2291,-48.8968 -5.4039,-15.2141 -8.7254,-80.7886 -9.0168,-85.2354 -8.7203,-24.9323 -5.9619,-171.7763 -27.2297,-227.9296 l -1.9294,0.052 c -1.2128,2.9629 -3.5873,8.8836 -4.8001,11.8876 -2.052,20.0655 -56.5167,559.5885 -59.9301,575.8109 l -3.6334,0.052 c -1.2843,-38.3701 0.052,-19.5483 -6.146,-49.388 h -6.3249 c -10.1327,38.6157 -9.4366,33.826 -10.854,46.4302 -1.2999,3.1831 -3.9458,9.5542 -5.2505,12.6964 -5.5167,-2.1545 -10.8543,-4.3498 -16.1507,-6.5044 -17.6602,66.3831 -11.0228,133.8151 -28.3964,297.5977 -26.4213,1.0747 -52.8422,1.3919 -79.1765,0.05 -12.1129,-23.4632 1.346,-51.4094 -8.5667,-75.6762 -25.8327,-254.2585 -13.689,-115.0392 -46.2511,-329.9398 -1.883,1.8835 -5.6086,5.6498 -7.4919,7.5379 -16.3757,124.8496 -19.4255,273.1418 -19.7837,277.5889 -4.6159,12.5069 -4.1554,15.2549 -3.6335,120.4943 -23.6831,1.0749 -47.3719,1.0339 -71.0143,0.05 -0.3173,-5.6191 -3.8533,-51.9162 -17.4503,-102.1436 -8.2338,-31.1547 -11.4681,-175.7216 -28.3045,-232.3253 -1.9753,2.0626 -5.9207,6.2332 -7.8961,8.3005 0,0 -12.425,91.1974 -12.425,91.1974 -9.5696,40.7346 -10.4551,39.6651 -11.3044,62.0382 -4.575,6.9548 -9.3289,13.7251 -14.2211,20.4134 -5.2506,-3.9914 -10.3169,-7.9422 -15.4752,-11.7546 -25.2801,83.2602 -7.1849,128.1195 -19.6048,164.0079 -8.9298,0.052 -17.8085,0.092 -26.6003,0.358 -0.7625,-20.7714 3.0962,-42.2133 -3.5465,-62.3095 -3.0498,-23.8675 2.9631,-48.5848 -4.4876,-71.7767 -2.7789,-22.3376 2.6047,-45.5297 -4.4422,-67.289 -1.2536,-15.2496 -1.1205,-30.5508 -0.9414,-45.8466 h -4.0837 c -0.4966,7.804 -0.8955,15.6132 -1.438,23.4633 -5.3376,15.567 -3.4544,32.1629 -3.4083,48.3134 h -4.5288 c -2.3234,-179.8565 -11.7087,-372.0867 -50.1097,-719.7634 -3.5464,-6.013 -6.9546,-11.9339 -10.4548,-17.8546 -5.3376,7.2206 -10.4499,14.5334 -15.117,22.1581 -3.8074,22.046 -2.6917,15.8948 -7.9831,36.6049 -17.6398,63.1233 -45.5348,341.4692 -45.5348,341.4692 -1.8372,17.901 1.5713,36.513 -4.4877,53.8302 -11.7549,117.2499 2.2668,121.8147 -13.3259,183.8786 -0.9415,13.505 -0.226,27.3628 -4.575,40.3766 -1.1666,15.613 -0.8085,31.2213 -1.8832,46.8343 -7.6709,24.7173 -1.2128,50.9131 -4.4878,76.2596 -8.0295,27.6803 -0.8548,56.926 -4.4882,85.1896 -2.6457,8.6127 -3.7255,17.5375 -4.6671,26.4673 -34.0052,1.0337 -68.0051,1.2998 -101.9641,-0.2262 0.3273,-53.8812 -2.6918,-22.7367 -4.9796,-63.1182 l -3.5872,0.052 c -4.938,38.0838 -5.5163,14.8405 -4.9793,62.8009 -6.0537,-0.05 -12.0206,-0.05 -17.9414,0 0.3989,-47.8939 -7.7838,-83.4139 -10.4498,-101.381 -16.1198,9.2523 -25.3977,85.1178 -26.1962,101.8314 -30.6378,1.2997 -61.2758,1.1665 -91.8728,-0.1799 -13.7145,-42.4795 0.7933,-65.5383 -9.6462,-102.4605 -3.3212,-25.3006 3.2291,-51.5427 -4.4879,-76.2597 -1.4328,-18.571 -0.4505,-37.2342 -1.7911,-55.8053 -3.7614,-10.7568 -7.763,-87.4822 -10.5419,-100.8897 -5.8288,-23.1767 -5.8543,-23.5096 -6.5964,-34.8545 -4.2627,-6.2383 -8.5665,-12.4253 -12.9623,-18.5253 -0.1335,-2.0162 -0.4504,-6.0999 -0.5835,-8.1214 -5.7878,-10.7206 -12.0668,-21.1297 -19.5126,-30.73 -4.5751,4.8872 -9.0168,9.7794 -13.4589,14.7126 -2.5126,0 -7.5379,-0.052 -10.0505,-0.052 -1.438,2.963 -4.2628,8.9249 -5.6958,11.8876 -0.2259,12.2462 0.092,24.7633 -3.9914,36.4718 -2.6457,41.0009 0.7164,82.1398 -1.8373,123.0942 -8.7456,24.0007 1.5712,50.2888 -7.1795,74.2895 -0.8956,11.7086 -1.0337,23.4635 -0.9878,35.213 -2.2005,1.9291 -6.6371,5.7878 -8.8378,7.758 0.05,-13.725 1.254,-27.9053 -3.6332,-41.0007 -3.0499,-23.8216 2.9167,-48.5387 -4.4882,-71.7769 -2.2413,-27.5417 0.4044,-55.1758 -1.8369,-82.7229 -8.1214,-29.159 -0.7626,-59.935 -4.4829,-89.7182 -7.1339,-21.7542 -1.7041,-44.9516 -4.4421,-67.2891 -4.6208,-12.0667 -3.8583,-25.1211 -3.7252,-37.7713 -2.1954,-1.8833 -6.6376,-5.742 -8.8379,-7.625 -1.392,24.0467 3.6334,48.9428 -3.5872,72.3141 -2.1546,19.3796 1.9702,39.5217 -4.488,58.3179 -2.8249,22.3428 2.6917,45.5346 -4.488,67.2886 -1.8834,23.0593 0.092,46.2052 -1.7912,69.2643 -7.3588,24.4048 -2.1543,50.2428 -3.5872,75.2719 h -4.4418 c -0.05,-14.6714 1.4788,-29.8292 -3.6337,-43.8715 -1.2536,-17.0922 -0.6293,-34.2252 -1.7961,-51.3173 -6.9033,-19.7021 -12.86,-173.3009 -27.3626,-204.3791 -20.9609,1.658 -23.9751,-6.9187 -36.2466,-82.856 -4.3961,-17.6294 -2.4667,-35.9344 -3.4542,-53.8761 -30.6533,-102.1893 -29.5735,-159.0183 -44.7262,-220.0793 -2.1084,1.9294 -6.3254,5.834 -8.4337,7.7581 -20.6844,352.2825 -67.8361,823.9028 -68.7677,828.3549 -31.9377,1.3459 -63.8804,1.438 -95.8183,-0.092 -10.6649,-37.0298 0.2262,-0.3224 -12.6503,-56.6601 -8.72,6.0593 -11.9389,14.5948 -16.7338,56.6601 -33.4679,1.438 -66.9767,1.3919 -100.4394,0.1799 -1.4789,-3.0961 -4.3958,-9.2881 -5.8747,-12.3792 -2.2413,-28.4884 3.8583,-57.8675 -3.8126,-85.7268 -3.3621,-25.3466 3.1881,-51.5887 -4.5289,-76.2596 -1.6171,-20.0499 -0.226,-40.2381 -1.7962,-60.2882 -6.013,-17.3173 -2.7786,-35.8883 -4.4419,-53.8299 -6.146,-17.2711 -2.7787,-35.8883 -4.4878,-53.83 -5.6549,-15.8334 -3.1833,-32.8845 -4.5291,-49.301 -5.0712,-14.4466 -3.4543,-29.8758 -4.5289,-44.8592 -3.2752,-9.3293 -3.7716,-19.2006 -4.1297,-28.934 -2.1083,-1.9292 -6.325,-5.7415 -8.4334,-7.625 -0.1188,7.7632 3.0705,47.0393 -10.3167,102.9521 -10.7057,-19.1851 -12.1436,-57.7652 -13.1416,-75.364 -3.7256,-10.7212 -3.6792,-22.1585 -3.7256,-33.3297 -2.1084,-1.9294 -6.3251,-5.7417 -8.4334,-7.625 -0.088,12.1998 0.5375,24.7631 -3.8124,36.4258 -8.3158,66.7769 -9.8408,292.951 -10.8131,311.5016 -6.4172,18.0338 0.052,38.4472 -10.6748,55.309 -15.6338,-67.5036 -20.3776,-214.3323 -20.6795,-218.7794 -0.998,-2.8759 -13.0086,-119.466 -13.1877,-124.6191 h -3.5001 c -0.3787,4.4521 -5.4196,67.4527 -8.3876,75.2718 -1.658,20.0961 -0.2661,40.2382 -1.8371,60.3344 -9.242,26.9176 2.0623,56.2556 -7.1797,83.2141 -1.7042,22.7418 -0.7164,45.5756 -0.8954,68.3635 l -4.3499,-0.1335 c -0.052,-12.2922 -0.1798,-24.5839 -1.0746,-36.8301 -10.0047,-34.3634 2.8708,-71.2803 -7.1338,-105.6437 -2.1543,-26.0631 0.3121,-52.259 -1.8372,-78.2809 -7.8502,-26.1961 -1.0337,-53.9683 -4.4879,-80.7476 -6.8626,-20.2751 -1.9752,-41.9423 -4.442,-62.8009 -7.5379,-24.85 -1.8831,-51.2763 -3.8125,-76.7972 -1.438,-3.0039 -4.3497,-8.9706 -5.7878,-11.9337 l -1.7501,-0.1334 c -12.1949,32.6693 -9.4467,50.5189 -24.1796,76.9812 -5.5626,-0.2713 -11.0332,-0.4965 -16.4627,-0.7166 -1.5199,13.1314 -2.9069,33.6419 -16.5088,64.551 -5.5167,-2.3334 -10.9462,-4.667 -16.2376,-7.0874 -4.621,5.3374 -8.9708,10.8539 -13.1416,16.5087 -7.886,73.4144 -8.2492,129.3474 -33.3756,306.3434 -3.2751,7.1335 -8.2544,13.1416 -14.8507,17.3171 -3.2906,-51.0563 -11.6064,-72.8306 -14.8456,-104.2979 -2.0216,-1.883 -6.1,-5.6956 -8.1214,-7.5839 -20.4442,132.8837 -18.4943,161.2957 -28.8007,198.8626 l -2.6919,0.05 c -25.6075,-148.5277 -21.7231,-164.0947 -33.7339,-208.2374 -10.0507,1.5708 -16.1967,7.9832 -17.7217,17.9415 -7.4455,8.4333 -14.6254,17.0922 -20.8174,26.4673 -0.5783,4.447 -27.8438,134.3881 -26.8255,195.4543 -36.8761,1.6171 -73.7932,1.438 -110.6689,0 -8.1368,-35.6174 -8.1265,-115.285 -20.6336,-204.9164 -12.5325,21.7337 -8.0191,46.8909 -17.4044,88.0142 h -3.1829 c -0.4914,-10.2296 -0.8547,-20.5924 -4.0836,-30.4127 -0.9879,-12.6042 -1.1668,-25.2544 -2.0624,-37.8585 -1.0952,-3.0499 -13.0034,-108.4124 -13.0546,-109.4563 -1.7502,-1.8832 -5.2913,-5.6088 -7.0414,-7.4918 -13.4282,36.2927 -10.1326,77.4008 -20.1422,208.5959 -4.8258,13.7093 -6.2022,73.2145 -12.6041,93.3976 l -2.9631,-0.05 c -1.346,-3.0039 -4.0785,-9.0168 -5.4705,-12.021 -0.226,-12.2458 0.092,-24.7632 -4.0837,-36.4718 -2.4666,-20.8583 2.3336,-42.5256 -4.4879,-62.7599 -2.7789,-22.3835 2.6916,-45.5755 -4.4827,-67.2887 -1.3922,-18.571 -0.4505,-37.2342 -1.7963,-55.8053 -11.3045,-32.4801 6.325,-69.7144 -11.3914,-100.3934 -8.49,51.7574 -4.7185,30.7403 -6.5964,61.9974 -6.7754,20.2751 -2.0214,41.9424 -4.442,62.801 -8.4335,22.5216 1.167,47.2849 -7.1335,69.8013 -1.3459,16.7338 -1.0337,33.5549 -0.9418,50.3297 l -4.3958,0.05 c 0,-13.817 0.047,-27.6799 -1.0337,-41.4047 0,0 -9.6922,-75.8096 -18.2128,-136.3279 -5.2453,11.0585 -12.7629,32.5109 -17.4965,58.6301 -3.6333,6.1462 -7.2666,12.3381 -10.9921,18.438 -17.4298,-36.8146 -20.4748,-79.5756 -21.9793,-90.5731 -28.7854,-63.9929 -23.3455,-129.6853 -39.2505,-172.3082 h -2.0625 c -17.9261,50.0585 2.2264,9.6413 -30.7298,196.0838 -0.9418,1.8371 -2.8248,5.5627 -3.7255,7.3998 -1.658,8.8378 -2.9168,17.7216 -4.3039,26.6002 -4.8461,19.0215 -2.0212,38.8055 -3.6792,58.1391 -6.5964,18.7501 -2.4205,38.8922 -4.5288,58.3178 -3.04,9.7231 -8.3621,51.7986 -8.7919,56.2557 -5.7416,3.8123 -11.4836,7.5379 -17.1381,11.3506 -1.9753,28.7904 0.6651,6.4939 -6.013,39.4756 -20.2291,0.8956 -40.4634,0.8956 -60.6515,0.226 -0.5375,-10.4957 -0.8088,-21.1298 -4.309,-31.0882 -2.1083,-19.4256 2.0213,-39.5678 -4.5287,-58.318 -1.7044,-17.9008 1.5708,-36.4715 -4.3958,-53.7839 -2.5128,-33.5086 0.6293,-67.1557 -1.8835,-100.6645 0,0 -28.2275,-278.9702 -45.2636,-344.4321 h -7.5379 c 0.078,24.5223 -4.8305,74.6167 -8.162,84.2477 -1.7963,17.9006 1.5708,36.5177 -4.488,53.8301 -2.5128,20.8586 2.3796,42.5256 -4.488,62.8007 -2.5128,20.8585 2.3336,42.5255 -4.488,62.801 -1.4329,18.5709 -0.4042,37.2343 -1.7912,55.8052 -6.4582,18.7964 -2.3796,38.9384 -4.4417,58.318 -6.5964,18.7503 -2.4207,38.8923 -4.488,58.3179 -6.5964,18.7502 -2.4667,38.8925 -4.488,58.2721 -7.3129,21.713 -1.7962,44.9512 -4.5751,67.2887 -2.6455,8.6125 -3.7253,17.5375 -4.6671,26.4212 -18.5708,0.6295 -37.096,0.6295 -55.58,0.05 -1.8372,-5.7877 -3.6793,-11.5296 -5.5167,-17.179 -2.8349,-79.1922 3.3929,-109.2771 -4.1707,-130.361 -2.5484,-38.524 -0.4912,-302.8483 -28.9337,-402.8373 -32.8999,-5.3784 -16.4935,-59.8276 -36.1136,-109.6352 l -2.2415,0.092 c -22.7365,221.6813 -12.1026,307.4334 -19.7377,400.2378 -8.3414,22.5217 1.0748,47.2389 -7.0877,69.8014 -0.9416,12.6042 -1.1206,25.2544 -2.0213,37.8638 -3.4083,10.2707 -3.7665,21.1757 -4.2167,31.9377 -1.2536,3.2753 -3.8124,9.8665 -5.0664,13.1416 -1.7961,-1.8374 -5.4295,-5.6088 -7.2206,-7.4459 -0.6856,-34.041 -1.1514,-3.8943 -5.9669,-66.5263 -7.1799,-19.6457 0.4042,-41.2259 -6.9546,-60.8307 -1.7502,-22.7009 -0.7623,-45.5295 -0.9414,-68.2763 h -8.3007 c -0.2157,4.4469 -5.8439,66.7769 -8.7455,75.2717 -1.2589,17.0922 -0.5835,34.2253 -1.7962,51.3175 -7.1747,21.7133 -1.7503,44.9052 -4.4881,67.2428 -7.5379,23.2381 -1.4379,47.9554 -4.5288,71.7767 -5.1123,14.1291 -3.7254,29.292 -3.6334,44.0047 -2.2413,-0.05 -6.6371,-0.05 -8.8838,-0.092 -0.4657,-9.0476 -14.4002,-315.002 -14.4002,-315.002 -0.1954,-0.5577 -27.9207,-260.0258 -35.3513,-287.9054 -1.8371,1.9754 -5.5167,5.8749 -7.3996,7.8501 -5.3939,24.1849 -5.0918,13.1979 -5.9211,47.9554 -1.525,-0.1337 -4.5288,-0.3585 -6.0537,-0.4915 -4.8002,-6.7754 -9.8665,-13.3667 -14.9376,-19.9168 -14.4466,73.2506 -22.7162,187.0362 -30.5511,229.6336 -0.9415,1.8371 -2.8248,5.5165 -3.7663,7.3588 -1.4381,6.9544 -2.6919,13.996 -3.8587,20.9967 h -3.362 c 0.1439,-39.573 -8.1367,-87.8302 -14.5794,-127.4031 -2.6459,4.4881 -5.2505,9.0169 -7.7582,13.5458 -0.092,15.2088 1.612,30.9551 -3.6332,45.5757 -3.0962,23.8213 2.8709,48.5385 -4.4829,71.7767 -3.8587,31.2673 3.6333,63.4763 -4.442,94.2065 -0.6703,8.3412 -1.0337,16.7797 -1.2998,25.1672 -2.7838,4.8002 -5.5627,9.6003 -8.2545,14.4004 -5.0509,47.0084 -1.6732,-8.1878 -5.8336,61.0559 -6.3713,18.7962 -2.4206,38.8923 -4.3961,58.3178 -6.146,17.0922 -3.3619,35.4843 -3.5872,53.2059 -34.4503,1.2999 -68.8598,1.5249 -103.2642,0.05 -0.2261,-17.7623 2.4207,-36.1136 -3.5003,-53.2466 -3.3212,-25.3004 3.183,-51.5425 -4.5288,-76.2187 -1.5712,-20.0959 -0.2661,-40.2383 -1.7963,-60.2932 -8.2544,-30.6842 -0.7624,-63.0261 -4.442,-94.3395 -6.8523,-25.8327 -2.6507,-25.6586 -18.4378,-76.6638 -5.9056,-24.3079 -3.7409,-22.9208 -13.4129,-49.0759 -1.7962,1.8832 -5.4703,5.6546 -7.3129,7.5379 -18.3712,146.9669 -13.4945,124.6396 -26.9175,148.9779 -3.0755,25.1674 -8.4025,30.2848 -14.4872,66.5264 -3.6335,6.0539 -7.1797,12.0668 -10.813,18.0797 -1.4382,-3.5001 -4.2631,-10.4957 -5.6958,-13.996 -1.2641,-23.0028 -2.088,-24.9271 -5.9669,-41.9425 -1.9752,0 -6.0129,0 -8.0293,-0.05 -0.2261,6.9544 -0.5372,13.904 -0.8085,20.8586 -15.6952,-32.9356 -4.6568,-39.9107 -9.3289,-93.5768 -7.4001,-23.2382 -1.3919,-47.9555 -4.4422,-71.7771 -5.2503,-14.5794 -3.6332,-30.2335 -3.8123,-45.3963 -1.4789,-3.0039 -4.4419,-8.9249 -5.9669,-11.934 h -2.4205 c -4.2475,35.2745 -8.3311,38.2067 -9.6002,77.8308 -2.1544,-1.9292 -6.4583,-5.7879 -8.6126,-7.6709 -0.047,-11.8009 -0.1798,-23.5505 -0.9877,-35.259 -6.0538,-17.3172 -2.7378,-35.8884 -4.488,-53.7838 -6.0998,-17.3176 -2.7378,-35.9347 -4.4418,-53.8302 -6.146,-17.3172 -2.7789,-35.9344 -4.5292,-53.8301 0,0 -17.9874,-136.4556 -17.9874,-136.4607 -1.6583,-1.8833 -5.0254,-5.6086 -6.6835,-7.4459 -10.6954,53.175 -4.4777,242.6728 -28.8008,388.6162 -2.0213,-1.9293 -6.013,-5.7419 -7.9832,-7.6713 -12.8294,-50.2476 -13.6735,-148.2154 -13.9039,-152.6573 -2.8709,-4.5749 -5.6958,-9.1499 -8.4794,-13.7248 -0.3584,10.9002 -0.2714,22.0713 -4.1248,32.4802 -2.1084,19.3795 2.0216,39.5217 -4.3958,58.3179 -3.6333,28.3043 3.4543,57.5555 -4.488,85.2357 -2.4206,30.5048 0.4913,61.1887 -1.8833,91.6937 -8.2544,30.6839 -0.6293,62.9389 -4.4878,94.2062 -7.4,23.1923 -1.4381,47.9091 -4.442,71.7307 -5.6085,15.6133 -3.5873,32.3422 -3.5873,48.5386 h -26.8714 c -1.7041,-28.0843 3.9916,-56.9719 -3.5875,-84.3809 -3.6793,-28.3042 3.5414,-57.6016 -4.5288,-85.2356 -2.7788,-22.3373 2.5996,-45.5346 -4.442,-67.2888 -1.1206,-15.6131 -0.8084,-31.2672 -1.883,-46.8344 -3.1831,-10.2705 -3.9458,-20.9969 -4.8462,-31.5795 -19.1288,-87.1444 -7.011,-65.0218 -35.9345,-233.5842 -24.1081,-78.1939 -23.0027,-237.2226 -35.7095,-297.4645 -1.658,-1.8374 -4.9332,-5.6089 -6.5501,-7.492 -1.4329,7.5787 -2.7839,15.2089 -4.3497,22.7417 -0.4351,4.442 -19.5641,186.1611 -26.6005,219.5419 -8.0393,36.9376 -8.1519,99.4875 -14.2673,117.0353 -1.7962,17.9006 1.5712,36.4716 -4.4878,53.7837 -2.5127,20.8586 2.3794,42.5257 -4.488,62.8011 -3.0501,23.8213 2.9627,48.5384 -4.488,71.7766 -1.7502,21.5752 -0.046,43.2472 -1.7961,64.7761 -7.492,23.2382 -1.3919,47.9554 -4.529,71.777 -2.8708,8.8375 -3.6796,18.0797 -4.4419,27.2756 -1.8832,-1.7961 -5.655,-5.3835 -7.5379,-7.2206 -16.9899,100.3831 -6.8266,92.7889 -9.5543,149.9196 -68.6807,0.9879 -137.3615,1.4329 -205.9961,-0.092 -2.5281,-8.8479 -19.0829,-110.2954 -23.8217,-171.858 -6.6372,-18.2127 -0.1335,-38.1757 -6.9544,-56.3426 -0.9877,-14.1291 -0.9415,-28.2632 -1.8833,-42.3465 -8.0753,-29.2051 -0.7165,-59.9298 -4.488,-89.7183 -2.707,-8.2493 -9.0321,-62.8621 -9.5081,-67.3348 -5.6547,-20.5004 -1.7502,-41.9015 -3.9045,-62.7601 -8.4794,-33.6007 -0.5374,-68.906 -4.5288,-103.177 -8.3875,-33.601 -0.5376,-68.906 -4.4882,-103.1771 -8.2542,-30.6382 -0.6703,-62.8931 -4.4878,-94.1605 -7.4457,-23.2382 -1.4329,-47.9551 -4.4419,-71.7768 -4.3498,-11.7087 -3.9046,-24.2668 -4.0376,-36.4718 -1.4382,-3.0039 -4.2167,-8.9708 -5.6088,-11.9337 h -2.0622 c -2.8198,28.9338 -10.102,111.0427 -35.1413,731.8404 v 433.3627 c 10.0811,-96.9186 21.9075,-210.5712 21.9075,-210.5763 4.3755,-12.8498 3.6538,-26.5285 3.613,-39.8544 z"
     id="path5430"
     inkscape:connector-curvature="0" /></svg>